/* XPM */
static char *b9a85a738b7e4ef3df2170f5b20632c8k0XU2Mm2UGPxWE8w[] = {
/* columns rows colors chars-per-pixel */
"64 64 251 2 ",
"   c None",
".  c #3E1E0D",
"X  c #3F1E0D",
"o  c #3F1D0E",
"O  c #3F1D0F",
"+  c #3F1E0E",
"@  c #3F1F0E",
"#  c #342115",
"$  c #362317",
"%  c #372317",
"&  c #372318",
"*  c #362418",
"=  c #372418",
"-  c #382418",
";  c #382519",
":  c #392519",
">  c #38261A",
",  c #3A271B",
"<  c #3F271A",
"1  c #3A281B",
"2  c #3B281B",
"3  c #3C281B",
"4  c #3A291D",
"5  c #3B291D",
"6  c #3B2A1D",
"7  c #3B291E",
"8  c #3B2A1E",
"9  c #3C281C",
"0  c #3C2A1D",
"q  c #3D2A1D",
"w  c #3C2A1E",
"e  c #3D2A1E",
"r  c #3E2B1E",
"t  c #3F2B1E",
"y  c #3F2C1F",
"u  c #401F0D",
"i  c #401D0E",
"p  c #401D0F",
"a  c #401F0E",
"s  c #401E0F",
"d  c #41200E",
"f  c #41200F",
"g  c #42200E",
"h  c #42200F",
"j  c #43200F",
"k  c #44200F",
"l  c #44210F",
"z  c #432112",
"x  c #442010",
"c  c #442110",
"v  c #452111",
"b  c #462312",
"n  c #412617",
"m  c #482413",
"M  c #492414",
"N  c #482514",
"B  c #492615",
"V  c #4E2816",
"C  c #412719",
"Z  c #462818",
"A  c #472A1A",
"S  c #412A1D",
"D  c #412B1D",
"F  c #402B1E",
"G  c #402C1E",
"H  c #412C1E",
"J  c #402C1F",
"K  c #412C1F",
"L  c #4A2B1A",
"P  c #482E1E",
"I  c #482F1F",
"U  c #492F1F",
"Y  c #4B2F1F",
"T  c #4C2F1F",
"R  c #512715",
"E  c #522715",
"W  c #512815",
"Q  c #522815",
"!  c #532815",
"~  c #5C2F1A",
"^  c #4B301F",
"/  c #4C301F",
"(  c #56331F",
")  c #62331C",
"_  c #67351D",
"`  c #4B2F20",
"'  c #4A3020",
"]  c #4B3020",
"[  c #4C3020",
"{  c #4D3020",
"}  c #4C3120",
"|  c #4D3120",
" . c #4C3121",
".. c #4E3222",
"X. c #4F3322",
"o. c #4F3323",
"O. c #503322",
"+. c #503323",
"@. c #503422",
"#. c #513422",
"$. c #503423",
"%. c #513423",
"&. c #583420",
"*. c #593420",
"=. c #583421",
"-. c #593521",
";. c #5D3722",
":. c #5C3723",
">. c #5D3723",
",. c #5D3925",
"<. c #623B25",
"1. c #643D27",
"2. c #653D27",
"3. c #6A3C25",
"4. c #653D28",
"5. c #7A3D21",
"6. c #7A3E22",
"7. c #7A4227",
"8. c #7F4224",
"9. c #7C4126",
"0. c #7F4427",
"q. c #704128",
"w. c #724128",
"e. c #76442A",
"r. c #7B4228",
"t. c #7D4328",
"y. c #7D4329",
"u. c #7E4328",
"i. c #7E4329",
"p. c #7F4329",
"a. c #7E4428",
"s. c #7E4429",
"d. c #7F4429",
"f. c #814224",
"g. c #824427",
"h. c #864425",
"j. c #874526",
"k. c #874626",
"l. c #874627",
"z. c #884627",
"x. c #894627",
"c. c #894727",
"v. c #8A4627",
"b. c #8A4727",
"n. c #8B4727",
"m. c #824428",
"M. c #834428",
"N. c #834528",
"B. c #80452A",
"V. c #844628",
"C. c #884628",
"Z. c #894628",
"A. c #8A4728",
"S. c #8B4728",
"D. c #8C4728",
"F. c #874829",
"G. c #874929",
"H. c #87482A",
"J. c #8B4828",
"K. c #89492A",
"L. c #8C4828",
"P. c #8D4828",
"I. c #8C4928",
"U. c #8D4928",
"Y. c #8D4829",
"T. c #8D4929",
"R. c #8F4928",
"E. c #8E4829",
"W. c #8E4929",
"Q. c #8F4929",
"!. c #8F4A2A",
"~. c #8C4B2C",
"^. c #904A29",
"/. c #924B29",
"(. c #904A2A",
"). c #914B2A",
"_. c #904C2A",
"`. c #934C2A",
"'. c #944E2C",
"]. c #954F2C",
"[. c #964E2C",
"{. c #984F2C",
"}. c #98502E",
"|. c #99502E",
" X c #9A502E",
".X c #9A512E",
"XX c #9B512E",
"oX c #9D522D",
"OX c #9C512E",
"+X c #9D522E",
"@X c #9F532E",
"#X c #9E532F",
"$X c #9F532F",
"%X c #9F542F",
"&X c #975331",
"*X c #985130",
"=X c #9F5430",
"-X c #A0542F",
";X c #A15430",
":X c #A25430",
">X c #A25530",
",X c #A35531",
"<X c #A45531",
"1X c #A45631",
"2X c #A55631",
"3X c #A55731",
"4X c #A65731",
"5X c #A45632",
"6X c #A55632",
"7X c #A55732",
"8X c #A65732",
"9X c #A75732",
"0X c #A45833",
"qX c #A75832",
"wX c #A75833",
"eX c #A55A35",
"rX c #A85833",
"tX c #A95833",
"yX c #A85933",
"uX c #A95933",
"iX c #A95934",
"pX c #AA5934",
"aX c #AA5A34",
"sX c #AB5A34",
"dX c #AD5B34",
"fX c #AE5C35",
"gX c #AE5D36",
"hX c #AE5E37",
"jX c #AB5D38",
"kX c #B05F38",
"lX c #B15F38",
"zX c #B36038",
"xX c #B26039",
"cX c #B36139",
"vX c #B46038",
"bX c #B76239",
"nX c #B6633B",
"mX c #B6643D",
"MX c #B8633A",
"NX c #B9633A",
"BX c #BA643A",
"VX c #BB643A",
"CX c #BA643B",
"ZX c #BB643B",
"AX c #C16D45",
"SX c #C46F46",
"DX c #C46F47",
"FX c #C56F47",
"GX c #C57046",
"HX c #C47047",
"JX c #C57047",
/* pixels */
"                                                                                                                                ",
"                                                                                                                                ",
"                                                                                                                                ",
"                                                                                                                                ",
"                                                                                                                                ",
"              FXJXFXJXFXFXFXFXJXJXJXFXFXJXJXJXJXJXFXJXJXJXAX          FXJXFXFXJXJXJXJXJXFXJXJXJXAXJXHXJXFXFXFXJXFX              ",
"            lXNXNXNXBXBXBXBXNXNXBXBXBXBXNXNXVXBXNXBXBXBXBXzXXX    jXnXNXNXBXMXMXBXBXBXBXNXNXBXMXBXBXBXBXNXBXBXBXnX-X            ",
"            $XrXrXrXrXwXwXrXrXrXrXrXrXrXrXrXrXrXrXrXrXrXrX7Xk. .O.].wXrXwXrXpXpXrXrXrXrXrXrXaXrXpXrXrXwXwXrXrXrXrXC.i.          ",
"            $XrXrXrXrXrXrXrXrXrXrXrXrXrXrXrXrXrXrXrXrXrXrX7Xk.Y ^ ].7XrXpXtX7X7XpXpXtX7XrXrXrXrXrXrXrXrXrXrXrXrXrXU.i.          ",
"            $XrXrXrXrXrXrXrXrXrXrXrXrXrXrXrXrXrXrXrXrXrXrX7XN.Y ' ].7XrX7XtXpXtXtX7XtXpXrXrXrXrXrXrXrXrXrXrXrXrXrXv.i.          ",
"            $XrXrXrXrXrXrXrXrXrXrXrXrXrXrXrXrXrXrXrXrXrXrX7Xk.` ^ [.7XrX7XpXtXpXrXrX7XpXrXrXrXrXrXrXrXrXrXrXrXrXrXJ.i.          ",
"            %XrXrXrXrXrXrXrXrXrXrXrXrXrXrXrXrXrXrXrXrXrXdX-Xv.Y ' [.rXrXtXpX7X7XrXrXrXrXrXrXrXrXrXrXrXrXrXrXrXrXrXv.i.          ",
"            %XrXrXrXrXrXrXrXrXrXrXrXrXrXrXrXrXrXrXrXrXrXrX7XC.`  .[.7XtXtX7XpXtXrXrXrXrXrXrXrXrXrXrXrXrXrXrXrXrXrXb.i.          ",
"            %XrXrXrXrXrXrXrXrXrXrXrXrXrXrXrXrXrXrXrXrXrXrX7Xv.Y  .`.tX7XtXpX7XtXrXrXrXrXrXrXrXrXrXrXrXrXrXrXrXrXrXv.i.          ",
"            %XrXrXrXrXrXrXrXrXrXrXrXrXrXrXrXrXrXrXrXrXrXrX7XC.Y  .'.7XtX7X7XpXpXrXrXrXrXrXrXrXrXrXrXrXrXrXrXrXrXrXU.i.          ",
"            %XrXrXrXrXrXrXrXrXrXrXrXrXrXrXrXrXrXrXrXrXrXrX7XC.Y T ].7XtXpXtXtX7XrXrXrXrXrXrXrXrXrXwXwXaXrXrXrXrXrXv.i.          ",
"            $XrXrXrXrXrXrXrXrXrXrXrXrXrXrXrXrXrXrXrXrXrXrX7Xv.Y ^ [.wXrXrXrXrXrXrXrXrXrXrXrXrXrXrXrXrXrX7XpXtXtX7XD.i.          ",
"            $XrXrXrXrXrXrXrXrXrXrXrXrXrXrXrXrXrXrXrXrXrXrX7Xv.T ' `.wXrXrXrXrXrXrXrXrXrXrXrXrXrXrXrXrXrXpX7X7XpXrXD.i.          ",
"            $XrXrXrXrXrXrXrXrXrXrXrXrXrXrXrXrXrXrXrXrXrXrX7Xv.T  .[.wXwXrXrXrXrXrXrXrXrXrXrXrXrXrXrXrXrXwXpXwXpXrXC.N.          ",
"            -XpXpXpXpXrXpXpXpXpXpXpXpXpXpXpXpXpXdXrXdXrXpX7Xv./ ^ ].rXpXpXpXpXdXpXpXpXpXpXpXpXdXdXrXaXrXpXpXpXdXpXD.i.          ",
"            k.L.L.L.L.D.L.L.L.L.L.L.L.L.L.U.U.U.L.L.L.U.L.b.6.^ ^ 8.L.L.L.L.L.L.L.L.L.L.L.(.L.L.L.(.L.L.(.L.L.L.L.6.            ",
"            b . . . a a a . @ . f @ f @ f f a a . f f f f f Z w 4 n f f f f l f f l f b f c b f l l l f l b c c l M             ",
"              > > 9 9 > 4 > 2 2 2 2 9 3 9 > > 2 2 > > 2 2 2 4 4 4 4 2 2 2 > > 2 > 2 2 9 9 9 4 2 2 2 2 2 2 2 2 2 &               ",
"              2.4.4.2.2.2.4.2.4.,.G w 9  .2.2.2.2.4.2.2.2.2.2.4.2.2.2.2.2.2.4.2.2.4.2. .8 9 G ,.4.2.1.4.2.2.2.2.<.              ",
"            nXBXBXCXCXCXBXBXBXCXdX3.9 ' &XVXBXBXBXCXCXCXBXBXCXCXBXCXBXCXCXCXCXCXBXBXBX~.' 8 q.cXCXCXCXBXBXBXBXBXBXwX            ",
"            ;XpXpXpXaXaXaXaXaXdX7XN.G ,.-XrXrXdXpXaXaXaXaXaXaXaXpXpXpXpXaXaXaXaXaXaXpX!.-.G J.rXdXaXaXaXaXaXpXrXpXL.N.          ",
"            $XrXrXrXpXwXrXrXrXrX;Xg.G ;.$X7XrXrXrXrXpXwXwXrXrXrXwXwXrXrXrXrXpXwXrXrXrXL.=.G J.;XwXpXrXrXpXrXrXrXwXU.i.          ",
"            $XrXrXrXrXwXrXrXrXaX7XN.G ;.$XrXrXrXrXrXrXrXwXaXrXrXpXwXrXrXrXrXrXwXrXrXrX!.=.w G.wXrXwXrXrXrXrXrXrXrXb.i.          ",
"            $XrXrXrXrXrXrXrXrXrX-XM.G >.$XtXrXrXrXrXrXrXrXrXrXrXrXrXrXrXrXrXrXrXrXrXrXL.( G v.tXrXrXrXrXrXrXrXrX7XU.i.          ",
"            $XrXrXrXrXrXrXrXrXaX-XM.G >.$XtXrXrXrXrXrXrXrXrXrXrXrXrXrXrXrXrXrXrXrXrXrX!.-.w G.-XrXrXrXrXrXrXrXrXrXv.i.          ",
"            $XrXrXrXrXrXrXrXrXrX7Xm.F >.XXtX7XrXrXrXrXrXrXrXrXrXrXrXrXrXrXrXrXrXrXrXrXL.-.G G.7XaXrXrXrXrXrXrXrXrXD.i.          ",
"            $XrXrXrXrXrXrXrXrXrX-Xk.F >.$X7XrXrXrXrXrXrXrXrXrXrXrXrXrXrXrXwXwXaXrXrXrX(.( G G.wXrXrXrXrXrXrXrXrXrXD.i.          ",
"            $XpXrXrXrXrXrXrXrXrX;XN.G >.$XwXtXwXwXtXwXtXwXtXwXtXrXrXrXrXrXrXrXrXrXrXwXL.-.G C.7XpXwXrXrXwXtXwXtXwXC.i.          ",
"            $X7XrXrXrXrXrXrXrXpX;Xk.G >.$XtXwXtXtXwXtXwXtXwXtXwXrXrXrXrXrXrXrXrXrXwXwXL.-.G N.7XpXwXrXrXwXpXtXwXtXD.i.          ",
"            $XtXrXrXrXrXrXrX7XpX7Xg.G >.XX7XtXwXwXtXwXtXwXtXwXtXaXrXrXrXrXrXrXrXpXtX7X(.-.G J.7XrXrXrXrXtXwXtXwXtXv.d.          ",
"            -XrXrXrXrXrXrXrXwXpX;XN.G -.$XtXwXtXtXwXtXwXtXwXtXwXwXwXrXrXrXrXrXrX7XtXtX(.*.F G.7XrXrXrXrXwXtXwXtXtXv.d.          ",
"            =XrXrXwXwXrXpXtXtXpX;XN.' =.$X7XtXtXwXwXwXtXtXtXwXwXwXwXtXtXrXrXrXrXtXtXwX(.-.G J.-XpXrXtXtXwXtXtXtXrXv.i.          ",
"            =XrXpXpXpXpXtXtXpXpX7Xk.y :.=XpXtXtXpXpXpXpXpXpXpXpXpXpXpXdXaXrXpXaXpXpXtXL.-.w J.4XpXpXpXpXpXpXtXdXrXJ.d.          ",
"            [.{.*X{.XXXX{.*X{.$X].8.9 -.`.{. X{.*X{.*X{.{. X*X].*X{.*X{.{.XXXXXX{.{.XXk.( G 0.}.XX*XXX{.*X{.*X{.$Xf.7.          ",
"            R a p O O . a p O . b L y G B p p p p a p p p a p O p p p p p p . . p a . M G w A l . . a p . p p p . b             ",
"              # = & = = & & = = : 7 y 7 7 & & & & & & & = = * & : * * * & & = & = & = > 4 9 4 > & = > # # = & = #               ",
"              %.%.o.%.%.%.%.%.%.o.o.%. . .%.%.%.%.%.%.%.%.o.' 9 9 ' o.o.%.%.%.%.%.%.%.%.o.o.%.o.%.%.%.%.%.%.%.%. .              ",
"            mXnXnXcXcXnXcXnXcXcXcXnXcXnXcXnXcXcXnXcXcXcXcXjXe.F y e.jXnXnXcXcXnXcXnXnXzXnXcXcXnXcXcXnXcXnXcXnXcXcXwX            ",
"            7XdXdXdXdXdXdXdXdXdXdXdXdXdXdXdXdXdXdXdXdXdXdXpXL. .` ].dXdXdXdXdXdXdXdXdXdXdXdXdXdXdXdXhXdXdXdXdXdXdX(.            ",
"            $XwXtXwXtX7XwXtXwXtXwXtXwXtXpXtXwXtXwXtXwXtXtX7XD.T ` ].tXtX7XtXtX7XwXrXrXrXrXrXrXrXpXrXrXrXrXrXrXrXrXb.d.          ",
"            $XrXwXtXwXpXtXwXtXwXtXwXtXwXwXwXtXwXtXwXtXwXtX7XQ.O.` ].7X7XtXtXpX7XrXrXrXrXrXrXrXrXrXrXrXrXrXrXrXrXrXC.d.          ",
"            $XrXtXwXwXtXwXtXwXtXwXtXwXtXwXtXwXtXwXtX7XtXtX7XD.` ` '.7XpXwXtXwXpXrXrXrXrXrXrXrXrXrXrXrXrXrXrXrXrXrXU.d.          ",
"            $XrXwXwXpXwXtXwXtXwXtXwXtXwXtXwXtXwXtXtXtXtXtX7XD.O. .].7XtXtXwXpX7XrXrXrXrXrXrXrXrXrXrXrXrXrXrXrXrXrXv.d.          ",
"            $XrXrXrXrXrXrXrXrXrXrXrXrXrXrXrXrXrXrXrXrXrXtX7XD.` ^ `.wXrXrXrXrXrXrXrXrXrXrXrXrXrXrXrXrXrXwXrXrXrXrXb.d.          ",
"            $XrXrXrXrXrXrXrXrXrXrXrXrXrXaXrXrXrXrXrXrXrXtX7XD.` ^ [.4XrXrXrXrXrXrXrXrXrXrXrXrXrXrXrXrXrXaXrXrXrXrXb.d.          ",
"            $XrXrXrXrXrXrXrXrXrXrXrXrXrXrXrXrXrXrXrXrXrXtX7XD.T ' ].wXrXrXrXrXrXrXrXrXrXrXrXrXrXrXrXrXrXrXrXrXrXrXb.d.          ",
"            $XrXrXrXrXrXrXrXrXrXrXrXrXrXrXrXrXrXrXrXrXrXrXtXD.O.' ].rXrXrXrXrXrXrXrXrXrXrXrXrXrXrXrXrXrXrXrXrXrXrXU.d.          ",
"            $XrXaXrXrXrXrXrXrXrXrXrXrXrXrXrXrXrXrXrXrXrXaXwXD.` ' `.wXwXrXrXrXrXrXrXrXrXrXrXrXrXrXrXrXrXrXrXrXrXrXb.d.          ",
"            $XrXwXrXrXrXrXrXrXrXrXrXaXrXrXrXrXrXrXrXrXrXrX-X(.T  .[.wXwXrXrXrXrXrXrXrXrXrXrXrXrXrXrXrXrXrXrXrXrXrXb.d.          ",
"            $XrXrXrXrXrXrXrXrXrXrXrXrXrXrXrXrXrXrXrXrXrXdX7XU. .^ `.wXwXrXrXrXrXrXrXrXrXrXrX7XpXrXrXrXrXrXrXrXrXrXb.d.          ",
"            $XrXrXrXaXrXaXrXrXrXrXaXrXrXrXrXrXrXrXrXrXrXrXwXL./ ' [.wXrXrXaXrXrXrXrXaXrXrXrXpXpXrXrXrXrXrXrXaXrXrXJ.d.          ",
"            $X7XwXwX7X7X7X7X7X7X7X7X7X7X7X7X7X7X7X7X7X7XwX;Xv.C C !.wXwX;X7XwX7X7X7X7X7X7X7X7X7X7X7X7X7X7X7X7X7X7Xk.r.          ",
"            _ W W W R R W W R R W R W R R W R R R R R R W W ~     ) W W W W R R R W W R R R R W R R W W R W W W R c             ",
"                                                                                                                                ",
"                                                                                                                                ",
"                                                                                                                                ",
"                                                                                                                                ",
"                                                                                                                                ",
"                                                                                                                                "
};
