/* XPM */
static char *_f14eb8313f24e15f2919861e5195bb0zHCh0WGVsPIjevSq[] = {
/* columns rows colors chars-per-pixel */
"63 64 125 2 ",
"   c #172310",
".  c #1A2612",
"X  c #1D2B14",
"o  c #213117",
"O  c #233219",
"+  c #263A1B",
"@  c #293C1D",
"#  c #2C3D21",
"$  c #2C421E",
"%  c #2F4222",
"&  c #314524",
"*  c #334B24",
"=  c #364C28",
"-  c #384F29",
";  c #365125",
":  c #395526",
">  c #3A512B",
",  c #3E5C2A",
"<  c #405A2F",
"1  c #445C34",
"2  c #43642D",
"3  c #46682F",
"4  c #476930",
"5  c #496D32",
"6  c #4D6C39",
"7  c #506B3E",
"8  c #4E7335",
"9  c #4F7039",
"0  c #507637",
"q  c #517539",
"w  c #557C3A",
"e  c #557241",
"r  c #597645",
"t  c #5B7847",
"y  c #5D7A48",
"u  c #57803C",
"i  c #5A833E",
"p  c #5C8540",
"a  c #5E8942",
"s  c #608447",
"d  c #618C45",
"f  c #628748",
"g  c #658D4A",
"h  c #688C4F",
"j  c #649247",
"k  c #669549",
"l  c #69944D",
"z  c #67984A",
"x  c #6A9B4C",
"c  c #6E9652",
"v  c #6F9E50",
"b  c #709357",
"n  c #709C53",
"m  c #729459",
"M  c #769D5C",
"N  c #6FA051",
"B  c #73A354",
"V  c #78A35A",
"C  c #78A758",
"Z  c #79A759",
"A  c #7AA15F",
"S  c #7AA25F",
"D  c #77A858",
"F  c #78A858",
"G  c #79A959",
"H  c #7AA85A",
"J  c #7AAA5B",
"K  c #7BAA5B",
"L  c #7BAB5B",
"P  c #7BAB5C",
"I  c #7CAB5C",
"U  c #7BAC5C",
"Y  c #7DAC5D",
"T  c #7EAD5D",
"R  c #7A9A61",
"E  c #7BA360",
"W  c #7DA761",
"Q  c #7EA862",
"!  c #7FAD61",
"~  c #7FB060",
"^  c #80AF5F",
"/  c #82A667",
"(  c #81AF61",
")  c #85AE68",
"_  c #80B060",
"`  c #82B161",
"'  c #82B262",
"]  c #83B363",
"[  c #84B364",
"{  c #84B464",
"}  c #85B565",
"|  c #86B666",
" . c #87B766",
".. c #87B767",
"X. c #88B767",
"o. c #88B867",
"O. c #86B268",
"+. c #88B768",
"@. c #8AB66B",
"#. c #8AB56C",
"$. c #8BB76D",
"%. c #88B868",
"&. c #8ABA69",
"*. c #8ABA6A",
"=. c #8BBB6A",
"-. c #8BBB6B",
";. c #8CB86D",
":. c #8DBD6C",
">. c #8DBD6D",
",. c #90BD6F",
"<. c #8FB970",
"1. c #91BC71",
"2. c #8FC06F",
"3. c #90C06F",
"4. c #92C271",
"5. c #93C372",
"6. c #93C373",
"7. c #94C473",
"8. c #95C573",
"9. c #95C574",
"0. c #98C776",
"q. c #97C876",
"w. c #99C877",
"e. c #9CCB7A",
"r. c #A0CF7D",
/* pixels */
"5 4 5 5 5 a B B B B C v w 8 w 8 0 8 l ....[ ...._ x x x z z z z z z z z z x D F F F F Z n z k k k k k j j j j j j u 8 8 8 5 8 ",
"5 5 5 5 5 d B B B B B v w 8 w 8 q 0 v .........._ x z x x z x x z x x x x x F F I C I I B z z k k k j k k j j j j i 8 8 8 8 8 ",
"5 5 5 5 5 d B B B B D n w 8 8 w 0 0 c X...X.;.....N z x x x x x x x x z x x F Y I I I F N z z z k k k j j k j j k i 0 8 8 8 8 ",
"5 5 5 5 5 d D B F C F B w 8 w 8 0 0 v -...[ -.....x x z x x x x x z z x x x U Y I I Y I B k k z z z z z k k k k j i 0 8 8 8 8 ",
"5 5 5 5 5 d F Z B Z F v w 8 w 8 0 0 B $.o.-.-.-...x x x x x x x x x x x x x U Y L Y Y Y B z z z z z z k k k k k k i 0 0 8 8 8 ",
"5 5 5 5 5 g B F D Z F B w w 8 w q w v ..-.o.-.-...x x x x x x x B x x x x x L Y L F L Y B x x z z z k x z k k k k i 8 8 8 8 8 ",
"j k g k k g d d k d d k c x v v x c B B B B F Z B Y _ ..[ ~ [ ^ ^ _ ^ _ { ^ B B B N B B D ~ Y Y ^ ^ F B B B N N n x k k k k j ",
"B B B Z Z k i i p p a a D Y / F Y Y B x x x x x B -.2.>.2.2.2.:.3.3.2.2.3.o.N x x x z x F -.o.-.o.o.o.I F Y Z Z F F B Z Z B B ",
"B B B C V k i p i p i d Z I I Y Y Y B x x x x x N -.>.2.3.>.3.,.2.2.2.2.>.-.B x x x x N L :.:.-.;.=.+.Y I F F F F F Z B B B B ",
"B Z B B Z k i i p p p d F Y Y Y Y ! B v x B N x B :.3.,.3.3.3.>.2.3.3.3.,.-.N x N x x x L >.-.-.-.=.+.Y I I I C F Z D B F B C ",
"C B B Z Z k p i p i p d F Y Y ! ( ~ B x x N x N B -.3.4.4.4.4.4.3.3.3.3.4.>.B x N x N x Y >.-.:.-.-.X.I I I I I F F Z Z C D B ",
"B F Z Z Z k i p i p p a Y Y ^ ^ _ ^ F v B x B x B :.4.4.4.4.4.4.7.3.3.3.4.=.B B N N N N L 3.,.,.:.-.=.^ I I I F I F F Z D B Z ",
"B B B B B x k k g k l l n c b b m m c g g g g g l >.7.4.7.7.7.7.w.7.5.3.8.2.b l g k h g n / A A A M S ( I I I I F C B B B B n ",
"z z z z z Z +.O.-.-.-.W # O o o O O o o o o o o = $.7.7.7.7.7.7.8.7.7.7.7.=.& O O O O O O O O O o o & Z ( Y I I I B z z z z z ",
"k k k k z F -...-.-.>.Q + X X . . . X . . . . . & ;.9.7.7.9.9.7.8.8.8.7.9.#.#   . X . . . . . . . . @ M F Y Y I L B z z k k k ",
"k k z k z D -.-.+.-.;.W + X X X o X X X X o X X & ;.9.9.7.7.w.0.8.8.q.q.9.$.# X X X X X X . X X X . # V ^ ^ ^ F I B z z z k k ",
"z k x z z Y -.-.=.=.>.W @ @ $ $ $ $ $ $ $ $ $ $ & ;.w.0.9.0.w.0.0.w.0.w.0.$.& + $ @ $ @ @ + + + + O @ V ( Y Y Y Y B z z z z k ",
"k z z z x F -.-.=.:.>.( $ - , , , , , , , , , ; = ;.w.w.w.w.w.w.w.w.w.w.0.+.& ; , , , : : : : : ; * $ E ( Y Y Y Y B x z x k z ",
"z z z z z Y o.-.=.>.>./ & , 4 5 5 5 5 8 0 5 8 , = ;.w.w.w.w.w.w.w.w.w.w.w.1.= < 5 5 5 5 4 2 2 2 2 : % V _ ^ ( Y Y B z z z x z ",
"Y Y ^ ^ _ _ _ _ { { { S & 2 8 8 8 0 0 w 0 w w 2 = O.3.;.,.3.3.7.w.r.w.w.0.1.= 2 0 8 0 0 0 w w q w 2 & V _ ( _ Y Y ( _ ( ^ _ F ",
"........-.o.Y Y _ _ _ M & 2 0 0 0 w w i i i w 5 = ) =.=.=.=.:.3.w.w.r.w.e.<.= 2 0 w 0 w w w i w w 3 & A ~ ^ Y _ Y ..-...o.....",
"....-.-.-._ Y ( _ _ ] V & 2 q w w w u i i i i 5 = ) =.=.=.=.:.7.r.r.r.w.e.<.= 2 w i w w w i i i w 4 = F { ^ _ _ Y ^ X.-.-.X...",
"Y +.....-...^ ^ _ _ _ M & 2 w w w w u i i i i 5 = [ :.:.>.>.>.7.w.r.r.r.e.<.- 4 w w w w i i i i p 4 * A ^ _ _ Y Y ..-.........",
"..-.-...-...Y ( ^ _ [ B & 3 w w w w i a i i i 5 = ..>.>.>.,.,.7.r.r.w.r.r.,.= 3 u u u w w p i i u 5 & A { ^ _ _ ( ] -.-.......",
"..-.-.-.-._ ^ ( ( ! ^ Z % 2 0 w w w w i i i i 3 - +.1.3.,.3.3.0.r.r.r.r.r.1.= 2 w w w w i i i w u 4 & F { _ ( _ ( ^ -.-.+.>...",
"_ _ Y ......_ ......../ 7 s l l l c n n n m n h 7 m M M M M M / / / / / / R 7 s l l l l l x c n x f 7 F L I I F F _ ......Y _ ",
"I I Y Y Y +.>.>.>.3.>.6.7.7.9.7.w.w.0.e.w.r.r.e.1.# X O o o o o o o o o o # ) ,.:.-.;.=.1.w.w.0.w.7.,.B B x v v x B ( Y I I I ",
"I I Y Y Y X.>.3.2.3.4.6.7.7.w.w.0.w.w.w.w.r.w.r.<.@ . . X . . . . X . . . @ ) ,.:.:.:.=.7.w.0.0.9.7.3.B N n x v v B Y Y I I I ",
"I I I ( Y +.>.>.2.4.4.7.9.7.9.w.0.w.e.e.e.e.r.r.<.# X o O o X o o o o X X # O.,.>.=.=.=.3.w.w.0.9.9.,.B N N x v x B Y Y I I I ",
"I I I I I ..2.>.>.4.4.4.7.7.7.w.0.e.w.e.e.e.e.r.1.# $ & * * * * * $ * * # # O.,.>.>.;.=.6.w.0.0.w.7.,.B N N N x v B ( Y I I I ",
"I I I Y Y X.>.1.4.4.4.4.7.9.9.9.0.w.e.e.e.r.r.e.<.& : 2 2 2 2 2 2 2 2 2 , & O.,.>.>.:.=.3.w.0.7.8.7.3.F B x N v x B ( I I I I ",
"I F I Y I X.>.>.>.3.4.4.7.9.9.w.0.w.e.0.e.e.e.r.<.= 3 q 0 0 0 0 0 0 0 0 2 & ) ,.>.:.:.:.8.w.0.w.w.7.,.F x B N x v Z Y I I I I ",
"x N N N B F ..+...-.o.o.7.8.7.7.w.w.m 1 1 1 2 1 > $ 8 i i i i i i i i i 5 + : 1 < 1 1 < m 3.:.:.o.-.o.-.-.........^ Y Y P I I ",
"x x z x x B ^ _ ~ ~ ~ o.3.8.w.w.w.e.t   .   . . . + 0 i i a a i a i a a 8 + .   . . . . r ,.o.o.X.{ o.3.4.4.3.>.>.o.( Y I I I ",
"x x x x x B _ _ ~ ^ o.o.7.7.7.w.w.e.y . X . . . X $ 0 i j a j a a a a i 0 $ X . . . . . r :.o.o.^ ..X.3.4.4.3.2.>...Y Y I I I ",
"x z k x x Z _ _ _ _ ^ o.5.8.7.w.w.w.y X O o o o + : w a a a i j a f d a 0 : + O + + + X r :.o.o.o.....3.4.3.2.2.>.+.Y Y I I I ",
"z x x x x F _ _ _ _ ....3.7.w.7.w.w.y + * * * * * 2 i i d a d i d a a a w 2 : : : : : + r :.o. .o.{ ..>.4.3.>.,.>...( I I I I ",
"x z x x x B _ ( _ ..! ..4.7.7.w.w.e.y $ 2 2 2 2 2 0 i a i k i j a a a d u 0 5 3 4 3 2 $ r =.o. ...o...>.4.3.,.>.>...I I I I I ",
"B B B B B B ^ ( ( ..^ ....o.....-.,.r * 5 8 8 8 8 i i a d i i d i i i i i u w w w 0 0 * t 3.:.=.X.:.-.-.:.-.-.-.....Y ^ I I P ",
"....-.-.-...^ ( ( _ _ Y B x B B B B 5 ; w i i i i i a p i i d i u u u w u w u w u u w * y w.w.8.7.3.3...^ _ ^ ( ( F I I I I F ",
"..o.-.-.-...I ~ _ _ _ ] B n N B B B 6 ; w i p i a i a a i a i i u u u u w w p p p i w : y w.w.8.7.7.3.o._ _ _ _ I ( I I I I I ",
"{ ..o.o.-._ Y ~ ( _ _ _ B v v B B B 6 : u i i a i i a p p a d i u u w u i w p p p p 0 = y w.8.8.7.7.3._ _ _ ( _ ( Y ^ I I I Z ",
"..o.o.o.-._ Y ~ ( _ _ _ B x B B B B 6 ; u i p p a a p i i a p i w w i w w w p i p p w ; y w.8.8.4.4.1.o._ _ _ _ Y Y I I I I Z ",
"..{ o.-.-.+.Y ! ( _ _ Y x B x B x B 6 : u i i p i i p i a i i i i i w i i w i p i i w * y w.8.8.4.4.1.+._ _ Y Y Y I I I I I F ",
"..o......._ ( Y Y _ _ Y B B v B B B 6 ; w p i i p s a d d f d p i a w i p p i i i i w * y 7.8.3.4.4.>..._ ^ ^ ! ( F P F Z Z Z ",
"x x N N v U O.-...-.;.:.Y Y Y Y _ _ e ; w i p i f +.,.,.;.,.1.,.;.,.,.,.1.#.f p i i w ; y 7.7.7.4.4.>.-.-.-.-...;.Z d d d d d ",
"k z z x z F -.-.-.>.>.-._ _ Y o.{ o.e = w i i i q 1.w.w.w.e.w.e.w.w.w.w.0.1.q w i i w * y 7.0.3.4.3.>.>.>.>.-.-.-.B i i i p p ",
"z z z z z U -.-.-.>.>.>..._ .._ _ ..q ; w i i w < ;.w.0.0.0.0.0.w.w.w.w.0.+.< w i i w * y 7.3.3.3.3.>.2.>.-.-.-.$.B p p i i i ",
"z k k z x F -.-.o.:.-.-.^ _ _ _ _ -.e ; w i p 5 > 1.0.0.w.7.w.w.7.w.w.w.w.#.= 0 i i w * t 7.4.2.>.>.>.>.-.o.:.-.-.B p i i i i ",
"j k z z k L X.-.:.o.-.-.^ _ _ _ _ _ e ; w w w 5 - #.7.7.9.9.7.9.9.7.7.7.w.;.= 5 i u w = y 7.3.>.>.2.>.>.-.-.-.o.X.B i i p i i ",
"k k k z z F o.o.-.,.:.-._ Y _ [ ^ o.e * w w i 3 = $.9.7.7.7.7.7.9.9.7.7.7.#.& 6 u u w % t 4.>.2.>.>.>.>.:.:.-.-.X.B p p i i i ",
"k k k z k N ^ ^ F L L ^ _ [ ..o.X.o.h q g k k i q ;.7.7.7.7.7.3.>.,.>.;.>.O.q p k k g 6 c 2.2.>.>.>.-.^ _ L L U P n k g k j g ",
"k k k k z z z z x x x x -.=.=.;.>.,.Y B B B B B B 1.7.3.5.7.4.-.] X._ { { _ B B v B B v ~ >.>.>.:.-...x x x x z x n C C Z Z B ",
"j j j k k k z z z x z B X.=.=.>.>.>.Y x x x x x B >.3.3.4.4.4.-._ { { _ _ ^ B x x x x x U >.>.>.-.-...B x x z z z x C C B B C ",
"k k j k z k z z z z z x o.-.;.-.>.>.^ x x x x N B :.3.3.>.4.4.-.{ _ _ { _ ^ N B N x x x U >.-.-.-.-...x k x z z z x C C C B B ",
"j j k k k k k z z z z x o.-.-.-.:.>.F x x N x B n -.2.:.3.>.>.o.^ ^ ^ ) ^ Y N x x x B x P -.-.-.-.-.] x z z z z z B C C B C B ",
"j j j j j j z z z z z x o.o.o.-.-.-.F x x x x x N -.2.2.2.2.2.o.^ [ ^ _ _ Y n x x x x x F >.-.-.-.-.o.x z z z z z x D B Z B B ",
"d d j j j j j j k k k z _ o.o.o.o.o.F x x B x x N  .-.-.-.-.o.[ L ^ Y L ^ Y N N x N N N F -.o.-...-.^ x k k j j k x B B B x B ",
"0 w w w w 0 8 5 8 8 8 8 x N x n N N B F F I F I D B N N N N N N n x B N x B _ o.[ [ [ { ~ Y Y ! F Y B 8 3 5 5 5 5 8 w w w w w ",
"8 8 8 8 8 5 5 3 2 4 2 8 k z z z k x B I F Y ^ I F x x x x x x x x x x x x x ..-.o.-.-.-...F U F F F B 5 2 2 1 2 2 3 9 8 8 8 8 ",
"8 8 8 8 8 5 4 3 3 3 3 5 j k z z z z B I I Y L L F x x x x z x x z x z x x N ..-.$.-.o...( U F D F F B 5 2 2 2 2 2 5 8 8 8 8 8 ",
"8 8 8 8 8 5 4 3 4 3 3 8 j k k z z z B F F Y L L U x x x z x z x x x x x x x [ -.[ ......( Y F Z F Y M 5 2 2 2 2 2 4 8 8 8 8 8 ",
"8 8 8 8 8 5 3 3 3 3 3 5 j k z k z k B F I I L I F x z x x x x x x x z x x x ~ o.........Y F D D F F B 5 2 2 2 2 2 4 8 8 8 8 8 ",
"5 8 8 8 8 5 3 3 3 3 3 5 j k k k x k n F F C L F F x z z z x z z z z x x x x _ ........+.( F Z Z Z B v 5 2 2 2 2 2 4 8 8 8 8 5 "
};
