/* XPM */
static char *_35c8192843e4809aac4c098c0aeb050rk7acfcSb2A90XcV[] = {
/* columns rows colors chars-per-pixel */
"64 64 232 2 ",
"   c #120D0B",
".  c #1B0F0B",
"X  c #15100E",
"o  c #1A120E",
"O  c #161312",
"+  c #1C1513",
"@  c #1D1816",
"#  c #1E1B1A",
"$  c #23130E",
"%  c #2B140E",
"&  c #2C1A0E",
"*  c #34160D",
"=  c #331B0F",
"-  c #3A1A0E",
";  c #231612",
":  c #291612",
">  c #231916",
",  c #2B1A15",
"<  c #231D1C",
"1  c #2A1D1A",
"2  c #331C14",
"3  c #3B1D14",
"4  c #331E1A",
"5  c #3A230D",
"6  c #2E2116",
"7  c #25201F",
"8  c #2A211E",
"9  c #3A2217",
"0  c #34221C",
"q  c #3B241C",
"w  c #201F20",
"e  c #252322",
"r  c #2A2524",
"t  c #2C2827",
"y  c #2D2B2A",
"u  c #322623",
"i  c #3A2621",
"p  c #332926",
"a  c #3A2924",
"s  c #322D2C",
"d  c #382F2B",
"f  c #34302F",
"g  c #353332",
"h  c #393634",
"j  c #3B3837",
"k  c #3C3A3A",
"l  c #441B0D",
"z  c #4A1A0E",
"x  c #431D13",
"c  c #4A1E15",
"v  c #531E14",
"b  c #651C10",
"n  c #54260E",
"m  c #432214",
"M  c #4B2215",
"N  c #43231B",
"B  c #4B231B",
"V  c #452A1A",
"C  c #4A2B19",
"Z  c #532413",
"A  c #5A2413",
"S  c #522B13",
"D  c #53251A",
"F  c #5A2618",
"G  c #532B1C",
"H  c #5B2B1B",
"J  c #4B3115",
"K  c #4C351B",
"L  c #543415",
"P  c #5D3316",
"I  c #55331A",
"U  c #632314",
"Y  c #6B2C15",
"T  c #652619",
"R  c #642C1C",
"E  c #6A2E1D",
"W  c #772919",
"Q  c #6A3313",
"!  c #643718",
"~  c #64321C",
"^  c #6C351A",
"/  c #74331C",
"(  c #7C331B",
")  c #783B19",
"_  c #432720",
"`  c #452A23",
"'  c #4B2C23",
"]  c #542D24",
"[  c #5C2D22",
"{  c #44312B",
"}  c #4D342D",
"|  c #533224",
" . c #5B3423",
".. c #54342C",
"X. c #5A392A",
"o. c #433733",
"O. c #413E3D",
"+. c #5D3A32",
"@. c #652C22",
"#. c #682E23",
"$. c #752C22",
"%. c #643122",
"&. c #663627",
"*. c #63352A",
"=. c #6B392C",
"-. c #743524",
";. c #773927",
":. c #673E35",
">. c #763C32",
",. c #6A4719",
"<. c #7A471C",
"1. c #75561F",
"2. c #42403F",
"3. c #684628",
"4. c #744323",
"5. c #7C4626",
"6. c #7D5621",
"7. c #764233",
"8. c #7A4439",
"9. c #444241",
"0. c #484645",
"q. c #4F4A48",
"w. c #82270F",
"e. c #9E370F",
"r. c #852A17",
"t. c #912C19",
"y. c #83331C",
"u. c #8C321B",
"i. c #893918",
"p. c #93331C",
"a. c #983718",
"s. c #933D1B",
"d. c #AB2F12",
"f. c #A42D1C",
"g. c #AC2B1B",
"h. c #A93917",
"j. c #A33B1C",
"k. c #B53519",
"l. c #822921",
"z. c #823423",
"x. c #8A3321",
"c. c #8B3E23",
"v. c #833B29",
"b. c #993925",
"n. c #853C32",
"m. c #A53724",
"M. c #B93D25",
"N. c #C31E17",
"B. c #D02E16",
"V. c #C13916",
"C. c #E52916",
"Z. c #E73A1D",
"A. c #F83E1A",
"S. c #C13D27",
"D. c #D93622",
"F. c #86461B",
"G. c #964618",
"H. c #9B441B",
"J. c #89551E",
"K. c #95561A",
"L. c #AD4814",
"P. c #A64619",
"I. c #A24B1D",
"U. c #B8471A",
"Y. c #A35A1D",
"T. c #B75619",
"R. c #9A671B",
"E. c #A86D17",
"W. c #AA6918",
"Q. c #B2621A",
"!. c #B56618",
"~. c #BD7712",
"^. c #894726",
"/. c #974625",
"(. c #92452A",
"). c #865828",
"_. c #975926",
"`. c #854535",
"'. c #A44926",
"]. c #B74823",
"[. c #A55827",
"{. c #B75727",
"}. c #A75231",
"|. c #91682F",
" X c #9E7B2D",
".X c #A96B22",
"XX c #B46526",
"oX c #AC712E",
"OX c #B57227",
"+X c #D94F0F",
"@X c #CA4818",
"#X c #C4541A",
"$X c #D45417",
"%X c #ED4A17",
"&X c #F5471C",
"*X c #E65619",
"=X c #C56619",
"-X c #D76419",
";X c #C77619",
":X c #D87917",
">X c #E4770C",
",X c #F1790D",
"<X c #E56715",
"1X c #F2661A",
"2X c #E8731A",
"3X c #F77915",
"4X c #C64923",
"5X c #D24B21",
"6X c #C95C27",
"7X c #EB4D24",
"8X c #D86527",
"9X c #D77725",
"0X c #D77931",
"qX c #EE6E22",
"wX c #9B7659",
"eX c #B58C17",
"rX c #B58E39",
"tX c #D88517",
"yX c #C69118",
"uX c #EE940F",
"iX c #E58515",
"pX c #F99B13",
"aX c #C8A716",
"sX c #D9A517",
"dX c #E8B117",
"fX c #CB9137",
"gX c #E29F24",
"hX c #D2B234",
"jX c #EEB52C",
"kX c #EFDA16",
"lX c #C9995D",
"zX c #E09F45",
/* pixels */
"< N < A (.O g y y w e w w :.i 1 e < t h > e 8 M.1 t > 8 q.t t t r y p s j < 1 W 3X$ r < y t 8 0 tX= 7 g y e g g y e g e y r # k ",
"# - $XO y e y 9.k y w k y w # B u.D 8 g @ p X #X8 < 8 < u s s > 7 t 7 < < @ d B.A e 8 r s t r 4.& E.,.@ e y w y g y k I g g e y ",
"g e w.@ g y r k y g f y j y w t 7 > 4XP.G.Q L #X: 2 N < r 8 t < 7 e r V e 1 U j.o e g g g f 1 9 e # 8 K 6.e e y g y y *.g h e e ",
"e k : ; k f f y y e f y y e s 9.7 8 H + $ ! tXe.b.@XP.5X5X{.;.u.3 b.qX;.[ T -.R E t w t r 7 V r t e t t # wX# y y # y # y < 8 y ",
"y y w ` + 2.r r w r g e g w e y 7 {.< 7 y o Q 7 ; 7 e < > + , 0 [ 0 @ < < r < < $X@ j y j y p y y e e w w 8 ,.y t w w y h O r g ",
"k O.< # T @ t t y y y e 0.e y j E N 7 @ f 1 / 7 7 t f 9.f 7 7 < t e y r t p + < <XO t y w 2.e w 2.r y e f 7 6.6 f g g g h y w g ",
"y 2.w + k.$.2 g e 2.k e t e e 1 v.7 p y t : Q 7 p < e p r < g h t r w < p O.h < qX@ j y w y e w g y y y w e + W.w e # # f f h e ",
"f w 1 f.r t D v w g g r w r p v.9 t t r 7 ~ > 7 y g 7 g 0.j g r a s g j y < s > ].g e g y 2.r r g r y y f w O ~.u # # w y y g e ",
"w t.[ y 9.y s , ( y h r , 2 < (.8 h e y h ].7 t p 7 s w g y y k j s s e 7 e t x E 7 e 2.e y e t h y g e y e  XO g j k r g g y k ",
"0 x h r e r h g 2 F.@ Y iX, > < s j 7 < 7 8Xr h r r w 1 >.t ` g y e e e t &.0 ( + t e r y e e y q 8 7. .r w hX+ w t y 2.O.w # y ",
"c s y y w y j e y + +XL.@ w t y y s t s @ 6Xt p r e t ] `.e < ` r s p r s < < j.# h g 7 y y t e 7 c.< r < w sXt k y r r y # g 1 ",
"y e e r g g w e r w U.+ t 7 t p g p e t 9 F.7 # 2.t y i { y t { r e k k 7 > 9 ,X< e t 7 j y r e g N r r r 3 P.v < e y g e j y /.",
"r y y g k y y r r r *X: 1 r s r g e u s a., r y y r e r y t e e r t r a < e iXJ L ).K y t j w r r j s 7 e k.# p @ > @.@., s D 1 ",
"8 O.g e w e j k g r k.4 < t t p s f e 0 I.7 e e y g j r e g k e r r y < a , :X< g 7 1.| t r h e t h O.e @ D.w g r w t e 2 './.t ",
"< r y f t f t e r r , b.: r h p 7 y 8 r '.< y t t g e e j y r 2.y w e # 8 T.: < y e 7 ,.0 < < < g y s e : r.O.y g k t e r t ^ E ",
"0 >.` w r y e y s r 7 N s.< s t < 7 1 < =X7 r y e e e e t e t t r j r e Q !.e p e r t h 1 1 8 } *.e e r ( : t j y e e e r k s < ",
"s t < n.e r y y i r r 1 ]., v.}.U.OX;X= Y.e e s r e e r r g r y g y y : jXO e y e r e y r r g u .. .1 , ~ < 7 7 t t r g y w w w ",
"h s r w b.y y &.4 `.-.#.#X3 1 r r s < , R.1.+ < e e s y V -.b.B 4 < < W  .e e y r k g g y y t t t < , q ( , < e e e e h y r r h ",
"e t y < 1 `.1 ] r s r t T B r r e s r 8 7   kXJ w g , |., O # O ; T m.C.O e w r g r g e e e p e r r j @ Q 6 7 f t e k g k e r e ",
"O.w y r y r (.< h s s < > ].r j r < s < 7 J ! eX XJ K t t f y k t g ; N.@ t s s y y y e y r e w k t e e ! 2 s e s y w y y r s y ",
"r r u e t 1 {.7 t k t r 4 N.1 s u h r e 7 K.7 t > aXJ e s g y y g g k x @.e e j e g g r y k k w y y y y W.; t f y e h e w 7 q 7 ",
"r j e y N &.r r < t e p < >.1 r s 8 $.F Q o 7 @ 7 7 + I q y y k y k y w n.r g h y r y g t y e y j g y g : ! e f y @ V .X.XC 6 %.",
"[.V y c R 7 7 < r r r 7 t H D 3 c b.#.2 t.^.6 r s t e w X.w t k k y k e / + s y t j y y y t r k y k # r ~ O O , ( XX6 t f f y 7 ",
"r V $Xx j g s 7 r h g g 7 / , 8 < w r < e @ G m t t 7 s | w e r t j e w $.4 i t 0 ' e w t y e t y w k r G.Q.! q < s < t f e # e ",
"f < 2X< 8 e f f 2.7 h # 1 q g e w u i y w g y @.=.{.;X5.G < > 7 y g w s ] v @ @.7 f p -.e t e e k g s h + K.h @ < 7 8 s t < 7 g ",
"7 < oX< < r < h t t 7 0 ).y s e w e ` t y w f w {.+ w # q ).y t g y g [ + + b.#.> j r 5.e e t y g t # f t ~.$ 8 1 8 s e t a g r ",
"7 7 lX< 8 e < < t 8 < XXw e g t e 9.y y y g y w < 5.e r $ #Xs y y 7 _ + k g * 2 T.7 m + t e r s e 7 7 y # $XL.o < 7 e y 8 e # g ",
"f 7 zX! > < t s 7 7 OX@ w e t e r e y y y w y e t ) 7 e w.v ^ ;.n.`.+ k y f h r n [.@ 7 t f < @ 1 7 : = =X= i.#X6 e O.7 ` y k t ",
"8 6 ).> ;.6X~ P @ L L g f w e h e r y y e e k y y  .y w ; (.7 y y w w k e y k g e 5 J.$ 3 T @XT.J.<.) : 1 j @ =XG w t p r w X.u ",
"f G , < < 8 < 6 S E.aX8 k r y w f g e w k e k y 2.' # r g P.0 # w k w g g y 9.y k g   M *X^ ; e r f j @ t e 7 O 7Xr s r # a k s ",
"V {.< s < 8 j 7 @ + R.@ w 2.f r y y y r y e k g r s ] s 7 .Xh h k y e k 9.9.k g s w + =Xl < e r y e y e g < # 4 g.1 g e < ..k 0.",
"1X7 < p e 8 s 8 6 # 1.$ 7 t e h y s k s k 9.y y y r i.m > X.f r k k y w e k g 9.< P yXi.+ < e y r j r e g t 7 1 U B 1 i o.r s s ",
"/.d 7 s t e 0.e 8 + P & f 7 7 r 7 < < e w y t # # ( h.gX X$ 7 < w w r < w < O W Y P e t g u y r y y k 0.e y g 1 : %X7 > 7 y < 8 ",
"4 7 g d 7 y p 8 t 7 y.3 7 7 y y 7 # y y g e s # ^.O t B ; ,XY ^.v h.$.>.l.$.W % e y t t y r r g r e y t y # O.< + C.: < i *...@.",
"N < O.< g h g 8 o.6 W % 8 < ; + o = - + + r r z.e 8 ; -.< # 7 ; F . &.+ 1 $ t.b t p t t y r t a r y 9.w y t j < N b.] e p 8 > 8 ",
"m.@ j < f 8 e 8 1 r.7X&X%X-X>XjX~.E.=X=X$Xh.4X5XF < @ 1 g y k n T s g s 1 > $ *X8 y e u y g s f g y k # < s t e ;.' ] f.N u < < ",
"y.S p e t < < e a F : ; o   T.l < # @ y f w e w , {.w g h k y @X1 + y r t + # : I.8 f 7 7 r y t { k s e 7 < 9 h.> , 7 @ D.b.2 1 ",
"G.pXtXiX].E B 0 < x.> p 8 o l iXr s r e e y g y t > ,.t f g e #Xy g j t j r ; ; H.o # # t h f y # t < < : a.m.8 r e 7 7 w 7 G z.",
"; ^.r + , 4 q W y.D v r < 7 z %X  y e g g e y s w w 9 |.> h > x y g y y y y ' < / 0X7 y g t a 7 < t 6 5.-X$ 0 e s w s h g s y t ",
"K.; r < t s 7 < ; 1 D.1 p , 8 @X3 e j j e g e y j y s i /.+ ] e r e y g k g r < H -X7 7 t # 7 f @ P !.@ e f e r y s w r p e g g ",
"H.t r g O.t j p t = #Xh p 8 o A @X+ f y f 7 w g g t 1 t 7 j.> 8 e y g g h j g g ; G y g r s r d * gX> @ t t a r s 7 g r y e y g ",
"$X8 r j t r 7 r 7 [.^ 7 8 8 > p.T >Xm h 7 g y y g g # @ [ N g g e r f g e g k e U.@X$ < $ 9 % ) K.c 7 i r 4 w t e y e j e r y g ",
"8Xr r s k g s < h F.:X; 8 G./.; o j.<X5 e r e r e # M.z.4 p 1 y g y y r e r e E : : ! 9X=Xr.( a.: . ; 7 y y w y y y f f w r r 0.",
"/.u t g e h 2.y @ t ,.+ 5.> 3., e e # {.U e y s # b.< s s p 4 < e y k y t e m % r t [ < e $ - j.1 1 t p e f f t g r e y y O.e w ",
"(.t t t e e 8 g 0 L W.^.$ O.< r t r < e 0 E 7 # @.3 j y e y < r y e g k t # 5 ! e u p t < 1 q @X@ 1 e s p } r g e t e g e f g y ",
"$.g r 7 f f t 3.> + tX@ 7 < s s t g r t r M.> b.> r e y y t y r k f e e y w ) T.^ 1 r t r t 1 Y @X8 > a r t g y y k e e e g y y ",
"q r 7 e g r X.< s f , ].< 7 r y e _ y y r > 1X> r r y t y g # # y y e y < O 9X< + 6X*.< o.k r u V., h 4 y y g > y p +.+.} +.:.:.",
"i < d < K *.e y t e y B B e y r t `.r t f f % 0X< g y t i t e g k g g 7 7 -.#Xe d r < i i _ < r 4 W r 7 8 y e s w w e e y g h w ",
";.[.5.eX6 7 g k 7 7 7 6 ( e e f r =.r r r e p : m.e k s 7.i y g r g < q r ; H.< e 8 p >.r 7 1 e r l.v 4 *.t j s w y k k t y g r ",
"< < g aX# 7 f f 8 y t 7 W y p s e %.< r p r u r Z.+ t s #.r 7 @ @ < < ; t 2 / u t >.` 7.g 1 t r i 1 U.0 7 e t j y t y r y g k g ",
"y t t q @ 8 j e t h g 6 B s e f t r 4 e t u r r % B.< : B t.v.x.$X_.-X@Xl r.x s < p i ` 1 ` ..:.< d 2 %X, t s t < # 9.j s r y t ",
"7 h 7 @ ,.8 f @ 7 f 7 q q t h t < < '.> 1 t + x p.Z.].c.x r p ; :Xo 8 ; (.6X@ p 8 e e b.e r p r r r t 4 ].< 8 y g # y y y s t =.",
"f f # 3.; t f y e t t H.+ r t 7 e o = <Xi.T.7Xg.: u e 8 e 1 r u 3Xo , 7 e r 8 7 7 r 1 !.r t g r s s 8 w - x t t y 7 t y r t e < ",
"8 !.6.hXL @ h e y r y '.7 t 7 f # S pX& 5 Q.< > 1 7 a e r ' d p :Xo : a ` i d s r d t <X(.8 r g a O.h h o *X@ > < 7 w e r e j 0.",
"K.O e y @ <.7 e y y f y.7 r 7 P P <.> f < :X> > r 7 g r 7 ..g r + U.< 8 { g w r 7 r 7 *.e 4 7.8 y t < > v d.u.-X:X( , 9 < e t 1 ",
"< h s s t Y.1 s y g y H @ I 9XI t 8 r y 7 > S.e p r r t e p e 1 ) <X@X< g h w t t 8.=.e r e r 0 ..r < r h.* e e y g I =XT.+ > ^.",
"w g g k y w 5.# s g 7 / s.< < e O.f g j # 9.v i w r w e r h 8 [.3 1 $X1 s t p { a r i y t y s t < 8 t < @Xw g y t t g y @ > 9 8 ",
"g e w e g e e ` Q.2 1 @ e 0 s e y e o.s w g : _ u r r y t r { s < + 3 #Xp k y y r e e y j y j e 7 ; 4 Z #Xg e w t 7 w g y ` t q ",
"g # e y h h w k r N m t t r y r e f f e e y c c w r g e t j k } > < > 6X< 7 g y y s r # j t t h r 7 : uX2 t y g g y g y f < 6 y ",
"k k g y g h y g k ,.<.r e g r j w y t 8 g u @.N > h s s f s s 7 | < < p.E < p s < h y y h e y e # Z *XX y h y y h y k g h e ).y ",
"y e g g e k g y @ /.1 < t t g k y 9.r y t 1 T 4 s < 8 r r g 7 r a 1 1 1 4X> < p 7 p s t e O.y y X uXX s k y e g y e e y k h 3.# ",
"y k k y t y y w /.e t a y y j y e t e y _ < 1 @.u u u g h g 7 r +.e j e (.E p s t t < 7 @ 7 e e rXJ h e e w y y p w y e g g + ^.",
"8 y g g j e + s.O e k ` e g w # e y w r s < > g.e 7 { y 7 k p g t O.t 8 u m.1 1 g.A.1X2XJ.L + 5 fX# y y y y k r 7 # g e r g f , ",
"^ O 9.y O F #.r g y g y +.e # e 9.w g s r k 7 D.d < 8 e g d t r < r O.p r 1 N x b v 1 > ; eXdX!.& y e f y y r r r y g y y r < h "
};
