/* XPM */
static char *_fd62e270dad4dc3dde6c88958f14b355yks4LA3ywSW3O7k[] = {
/* columns rows colors chars-per-pixel */
"64 64 111 2 ",
"   c #0F0D0F",
".  c #0F0F10",
"X  c #100F11",
"o  c #111111",
"O  c #151B13",
"+  c #1C1F1B",
"@  c #172014",
"#  c #192415",
"$  c #1C2A17",
"%  c #1D3116",
"&  c #202E1B",
"*  c #22351B",
"=  c #233B1B",
"-  c #282F27",
";  c #293127",
":  c #273D20",
">  c #28471D",
",  c #274A1B",
"<  c #29491D",
"1  c #2B541C",
"2  c #2E5E1D",
"3  c #2F641C",
"4  c #31661E",
"5  c #32681F",
"6  c #2C4A22",
"7  c #335B24",
"8  c #374434",
"9  c #384534",
"0  c #356225",
"q  c #356B23",
"w  c #3A6D27",
"e  c #3A652C",
"r  c #3A6C28",
"t  c #397424",
"y  c #3D7A27",
"u  c #3C7528",
"i  c #3E7C29",
"p  c #407F2B",
"a  c #406C31",
"s  c #407130",
"d  c #457A33",
"f  c #4A7F39",
"g  c #4C6246",
"h  c #4F664A",
"j  c #50674B",
"k  c #55734E",
"l  c #3F8029",
"z  c #42822C",
"x  c #46892E",
"c  c #458331",
"v  c #478B30",
"b  c #498A33",
"n  c #4D833C",
"m  c #4C8A38",
"M  c #518D3D",
"N  c #4B9333",
"B  c #4F9B35",
"V  c #519D37",
"C  c #539E39",
"Z  c #55A43A",
"A  c #58A13F",
"S  c #57A93B",
"D  c #59AC3D",
"F  c #5BB03E",
"G  c #568C45",
"H  c #579544",
"J  c #589445",
"K  c #5E9A4C",
"L  c #60964F",
"P  c #64835D",
"I  c #5FA747",
"U  c #5DAE41",
"Y  c #5FB043",
"T  c #60AB47",
"R  c #66B64C",
"E  c #68B74E",
"W  c #67B84D",
"Q  c #68A655",
"!  c #6BA959",
"~  c #6BBA52",
"^  c #71BE58",
"/  c #7AAD6C",
"(  c #75B165",
")  c #7CBB6B",
"_  c #7CC865",
"`  c #85BF76",
"'  c #85B57A",
"]  c #8ABA7F",
"[  c #8BCB7A",
"{  c #8BBA80",
"}  c #96CB8A",
"|  c #98CD8B",
" . c #95D585",
".. c #95DD82",
"X. c #9ADB8A",
"o. c #9FE68D",
"O. c #A0E78E",
"+. c #A1E88F",
"@. c #A2E293",
"#. c #A5EA94",
"$. c #A6E398",
"%. c #A8E49A",
"&. c #A7EA98",
"*. c #AAEC9A",
"=. c #AEF39D",
"-. c #B0F69F",
";. c #AFF1A0",
":. c #B1F6A2",
">. c #B6FCA6",
",. c #B7FDA8",
"<. c #B8FEA8",
/* pixels */
"p p p p l l c X.,.>.>.>.>.>.>._ S F D D D D D x 3 4 4 4 4 4 4 t z p p p p p p x S D D D D D D R =.>.>.>.>.>.<.;.f 4 4 4 4 4 4 4 ",
"p p p p l d c X.,.>.>.>.>.>.>._ S D D D D D S x 3 4 4 4 4 4 4 5 p p p p p p p x D D D D D D S R =.>.>.>.<.<.-.;.f 4 4 4 4 4 4 4 ",
"i z z i l l z X.,.>.>.>.>.>.>._ S F D D D D D x 4 4 4 4 4 4 4 t p p p p p p p x S D D D D D D R =.>.-.<.>.-.<.=.f 4 4 4 4 4 4 4 ",
"p p p p i i c X.,.>.>.>.>.>.>._ S D D D D D F x 4 4 4 4 4 4 4 t p p p p p p p x S D D D D D S E =.<.>.<.>.>.>.=.f 4 4 4 4 4 4 4 ",
"p p p p p p z X.,.>.>.>.>.>.>._ S D D D D D S x 3 4 4 4 4 4 4 5 p p p p p p p x D D D D D D D R =.-.<.<.>.-.>.=.f 3 4 4 4 4 4 4 ",
"i z p p p p c X.,.>.>.>.>.>.>._ S D D D D D D x 4 4 4 4 4 4 4 s p p p p p p p x S D D D D D S R -.<.<.-.<.<.>.=.f 3 4 4 4 4 4 4 ",
"p p p p p i c X.<.<.,.,.,.,.>._ D F F F F D F x 3 4 4 2 3 3 3 5 p p p p p p p x U F D F F F D E -.<.<.<.<.<.<.-.f 3 3 3 3 3 4 4 ",
"v v v v v v b / { { ] ] { { { K c c c c c c c m M G G G G G G M v v v v x v v x c c c c c c f M ' ] ] ] ] ] ] ] L G G G G G G G ",
"D S D S D D A : O O + o O + o o o o O o o O o P >.:.:.:.>.:.<.[ D S S D D D D b O o o O O o o O o + o + o + o & } -.-.-.>.-.-.>.",
"D D D D D D S = X X o o X X o o o o o o o o   P <.>.>.>.>.<.<...D D D D D D D b O X o o X o o o X X o X X o X + | <.>.>.<.>.>.>.",
"D D D D D D D = X X X o o o o o o o o o o o   P <.>.>.>.>.>.<...D D D D D D D b o o o o o o o o o o o o X o o + | <.<.>.>.>.>.>.",
"D D D D D D A = X X X o o o o o o X o o o o   P <.>.>.>.>.>.>...D D D D D D D b O o o o o o o X o o o o o o o + | <.>.>.>.>.>.>.",
"D D D D D D A = X o o o o o X o o o X o o o X P <.>.>.>.>.>.>...D D D D D D F b O X o X o o o o o o X o o o X + | <.>.>.>.>.>.>.",
"D D D D D D S = X o o X o o o o o o o o o o   P <.,.>.>.>.>.<...D D D D D D D c O X o o o o o o o o o o o o   + | <.>.<.>.>.>.>.",
"D D D D D D A = X o o o o o o o o o o o o o   P <.>.,.,.>.,.,.[ D S F S D D F b o X X o o o X o o o o o X o   + | <.<.<.<.<.>.>.",
"V B V V V V B * X o o o o X o o o o o o o o   k X.X.X.X.X...o.[ V V V B V B V p O X o o o o o o o X o o o o   O ' X. . . .X.[ | ",
"4 4 5 4 5 5 4 $   o o o o o o o o o o o o o   < z c z c c c z s 5 5 5 5 5 5 4 1 o o o o o o o   o o o X o o o O 7 5 w 5 w 5 w 5 ",
"4 4 4 4 4 4 4 # o o o o o o o o o o o o o o X < z p p p p p p y 4 4 4 4 4 4 4 1 o o o o o o o o o o o o o o o o 1 4 4 4 4 4 4 4 ",
"4 4 4 4 4 4 4 # o o o o o o o o o   o o o o X < z p p p p p p t 4 4 4 4 4 4 4 1 o o o X o o o o o X o o o o o O 1 5 4 4 4 4 4 4 ",
"4 4 4 4 4 4 4 #   o o o o o   o o o o o o X X < z p p p p p p y 4 5 4 4 4 4 4 1 o o o o o o o o o o o o o o o o 1 5 4 4 4 5 4 4 ",
"4 4 4 4 4 4 4 #   o o o o o o o X o o o o o X < p p p p p p p y 4 4 4 4 4 4 4 1 O o o o o o X o o o o o X o o O 1 5 4 4 4 4 4 4 ",
"4 4 4 4 4 4 4 # o o o o o o o o o o o o o o X < z p p p p p p t 4 4 4 4 4 4 4 1 o o o o o o o o o o X X o o o o 2 5 4 4 4 4 4 4 ",
"4 4 4 4 4 4 2 #   o   o   o     X o   X X X X < z z p p p p p y 5 5 4 4 5 4 4 1 o   o X     X   X       X     o 1 4 4 4 4 4 4 4 ",
"n n n n n n f 6 * * * * * * * # # # # # $ # @ 6 0 q r 0 q q w 4 1 1 1 1 1 1 1 , & $ $ $ $ $ & & 8 9 9 9 9 9 9 9 w t t t t t t s ",
":.:.-.:.-.-.-.~ Z S S Z S S Z p 4 2 4 4 3 4 4 = o O O o o O O o o O o o O o o * w p t p p y t m $.;.;.=.;.;.;.*.R S S S S S S S ",
",.,.>.>.>.,.:.^ S D D D D D D z 4 4 4 4 5 5 5 =   o o o o o   o o o o o o o o $ p p p p p p p M *.>.>.>.>.>.<.-.~ S S F F S D F ",
">.>.>.>.,.>.:.^ D D D D D D S p 4 4 4 4 5 3 3 = o o o o o o o o o o o   o o   $ p p p p p p p M *.<.>.>.>.>.>.-.~ S F S D D D D ",
">.>.>.>.,.,.:.^ S D D D S F S p 4 4 4 4 3 3 3 =   o o   o o o o o o o o o o o $ p p p p p p p M *.>.>.>.>.>.>.-.~ S S F D D D D ",
">.>.>.>.>.>.:.^ D D D D D D D p 4 4 4 5 4 4 3 , o o o o o o   o o o o o o o   $ p p p p p p p M *.<.>.>.<.-.<.-.~ S D D D D D D ",
">.>.>.>.>.>.:.^ S D D D D D S p 4 4 4 4 4 4 3 = o o o   o o o o   o o o o o o $ p p p p p p p M *.<.>.>.<.<.<.-.~ D D D D D D D ",
">.>.>.,.,.>.>.^ D S D S D D D p 4 5 4 4 4 5 5 = o o o o o o o o o o o o o o o $ p z p p p z p M *.<.>.<.<.-.<.-.~ D D F D D D D ",
"@.#.+.#.+.#.O.E Z Z Z Z Z Z Z t < 1 1 1 1 1 2 * o o o o o o o o o o o o o o . $ 0 r r q q q q f ..#.#.#.#.+.#.O.T V V V C V V V ",
"Y Y Y Y Y Y U v l c l c z l i > o o O o o O o o o o o o o o o o o o o o o o o o o O O o O O o & A T T Y Y Y Y D y 5 5 5 5 5 5 q ",
"D D D D S U S v i l i z i c i = o o o o o o o o X o o o o o o X o o o o X o o o o o o o o o   # C D F F D D D Z t 4 4 4 5 5 4 5 ",
"D D D D D D S v c i i l z i z = o o o o o o o o o o o o o   o o o o o o o o o o X o o o X o   $ Z D S F D D D S t 4 4 4 5 4 4 4 ",
"D D D D D D S v i l i c i z l =   o o o o o o o o o o o o o o o o o X o o o o o o o o o o o o & V D D D D D D Z q 4 4 4 4 4 4 4 ",
"D D D D D D S v d l l l i z i = o o o o o o o o o X o o o o X o o o o o o o o o o o o o o o   $ C D D D D D D S t 4 4 4 4 4 4 4 ",
"D D D D D D D v l l l d z i z =   o o o o o X o o o o o o o o o o o o o   o o o o o o X o o X # C D D D D D D Z 5 4 4 4 4 4 4 4 ",
"U S D D D D U v i i l l i z z =   o o o o o o o o o o o o o o o o X o o o o o o o o o o o X X & C D D D D D D S t 4 4 4 4 4 4 4 ",
"Z Z Z Z Z Z V c i i i i u i i = X o o o o X o o o X o o o o X o o o o o   o o o X o o o o o o # B Z Z Z Z Z Z Z y t t t 5 t t t ",
"l l c c l c l r 4 5 5 5 5 5 5 % X o o X o o o o X o o o o o o o o o o o o   o o o o o o o o X + y z z z z z z z Z Z Z S S S S S ",
"l l l i l l l q 4 4 4 4 4 4 4 % X o o o o o o o o o o o o X o o o o o X o o o o o o o o o o X # u z p p p p z z Z D D D D S D S ",
"l l l l i l i q 4 4 4 4 4 4 4 % X o o o o o X o o o o X o o o X   o o o o o o o o o o X o o X # y p p p p p p z Z D D D D D D D ",
"l l c i l l l q 4 4 4 4 4 4 4 % X o o o o o o o o o o o o o o o o o o o o o o o o o o o o o X O t p p p p p p z Z D D D D D D S ",
"i l l l l c i r 4 4 4 4 4 4 4 % X o o o X o o o o o o o o o o X o o o o o o o o o o o o X o X # u p p p p p p z Z D D D D D D D ",
"c l i l l i i q 4 4 4 4 4 4 4 % X X o o o o o o X X o o o X o X o o o o o X o o o   o o o o X # u p p p p p p z Z D D D D D D D ",
"i l l i l l l q 4 4 4 4 4 4 4 $ X o o o o o X o X X     X X     o o o   X   o o o o o o o o X O u p p p p z p z Z D S D D D S D ",
"l m b l v b l d d d d f d d f = X o o o o o o O $ $ & $ & & & $ O @ O # O # O O o o o o o o X # t i i i i y y p T W E E W E E E ",
"I Z Z S S S S ..;.&.&.*.*.*.*.g   o o o o o X 7 A C Z C Z C Z x 2 4 2 2 2 2 3 , o o o o o o o O 2 q 4 4 5 5 5 t  .:.=.=.=.=.=.-.",
"U U S U D D U o.,.,.>.,.,.,.,.j   o o o o X o 0 F D D D D D D N 4 4 4 4 4 4 4 1 o o o o o o o O 2 4 4 4 4 4 4 w X.,.>.>.,.>.>.,.",
"D D D D D D U o.,.>.>.>.>.>.,.j     o o o o   7 U D D D D D D v 4 4 4 4 4 4 4 1 o o o o o o o O 2 5 4 4 4 4 4 w X.,.,.>.>.>.>.>.",
"D D D D D D U o.,.,.>.>.>.>.,.j   o o o o o   0 D D D D D D D N 4 4 4 4 4 4 3 1 o o o o o o o O 2 4 4 4 4 4 3 w @.,.>.>.>.>.>.>.",
"D D D D D D U o.>.>.>.>.>.>.>.h   o o o o o X 0 D D D D D D D N 4 4 4 4 4 4 5 1 O o o o o o X O 2 4 4 4 4 4 4 w X.,.>.>.>.>.>.>.",
"D D D S D D U o.,.>.>.>.>.>.>.h   X o X o o X 0 F D D D D D D N 4 4 4 4 4 4 5 1 o o o o o o o O 2 4 4 4 4 4 3 w X.,.>.>.>.>.>.>.",
"D S D D D D U o.,.,.>.>.,.,.,.h     X X X X   7 F D D D D D F N 3 3 4 3 4 3 4 1 o X o o X X X O 2 0 3 3 3 3 3 w @.,.,.>.,.,.>.>.",
"Z Z Z Z Z V Z ..&.&.&.#.#.&.&.k - ; ; ; ; ; - a S Z Z S Z Z S B d d d d s d d e & # # & # # & & u d d d d d d f  .&.&.#.#.&.#.#.",
"q q q q q q q c m m m m m m G ` %.$.$.@.%.@.#.( z z z x z z z Q #.*.*.*.*.*.*.[ C C C C C C V T O.*.*.&.&.*.%.@.K m m m m m m m ",
"4 4 4 4 5 4 4 y i i i l i l i [ <.<.<.<.<.<.-.` p p p p p p p ! >.>.>.>.>.>.<.#.U D D D D D D W =.,.,.>.,.,.,.:.H i p i i i i l ",
"4 4 4 4 4 4 5 y l i c i l i i [ <.>.>.>.>.>.<.( p p p p p p p Q >.>.>.>.>.>.<.+.U D D D D D D W =.:.>.>.>.>.>.=.H p p p i p z p ",
"4 4 4 4 4 4 4 y l l i l l l l [ >.>.>.>.>.>.<.` p p p p p p p ! >.>.>.>.>.>.>.+.U D D D D D D W -.,.>.>.>.>.>.-.H i p p z p p p ",
"4 4 4 4 4 4 5 y c l i c l l l  .<.>.>.>.>.>.-.) p p p p p p p Q >.>.>.>.>.>.>.+.U D D D D D S R =.>.>.>.>.>.>.;.J p p p p z p i ",
"4 4 5 4 4 4 4 y i i l i d l y [ >.>.>.>.>.<.<.) y p p p p p p Q >.>.>.>.>.>.>.+.U D D D D D S W =.>.>.>.>.>.>.-.J p p p p i p z ",
"4 4 4 4 3 4 q u l i l l c i i [ <.>.>.>.-.<.-.` p p p p p p p ! >.>.>.>.>.>.>.+.U D D D D D S W -.>.>.>.>.>.>.-.H i p p p p i z ",
"q 4 4 4 0 4 4 i i c l d i i i [ <.>.>.<.<.<.-.` p p p p s p p ! >.>.>.>.>.>.>.+.T D D D D D S W =.,.>.>.>.>.>.=.J i p p p p p p "
};
