/* XPM */
static char *cf931737fee347c3a6342c9a2eb5e6caraNeUhlJ9rJg9Vct[] = {
/* columns rows colors chars-per-pixel */
"64 64 180 2 ",
"   c #5C171B",
".  c #5C1B1F",
"X  c #561C20",
"o  c #591F23",
"O  c #691E23",
"+  c #5E2327",
"@  c #632126",
"#  c #682024",
"$  c #642328",
"%  c #6E262C",
"&  c #742227",
"*  c #77282E",
"=  c #7E282E",
"-  c #732D33",
";  c #7D2F35",
":  c #7E3036",
">  c #7E333A",
",  c #832E34",
"<  c #833037",
"1  c #883137",
"2  c #84343A",
"3  c #8B343B",
"4  c #86383F",
"5  c #8E383F",
"6  c #92373E",
"7  c #8C3C43",
"8  c #943B42",
"9  c #9C3D45",
"0  c #A23E46",
"q  c #A13F48",
"w  c #8D4149",
"e  c #94444C",
"r  c #9B434B",
"t  c #9F4750",
"y  c #954A52",
"u  c #9C4951",
"i  c #A4434C",
"p  c #AB454E",
"a  c #A64750",
"s  c #AD4750",
"d  c #A34B54",
"f  c #AC4B54",
"g  c #A74E58",
"h  c #AD4F58",
"j  c #B24C56",
"k  c #B24F58",
"l  c #A5515A",
"z  c #AC535C",
"x  c #B4525C",
"c  c #BA535D",
"v  c #AE5760",
"b  c #AC5B64",
"n  c #AA5F69",
"m  c #B45660",
"M  c #BB5661",
"N  c #B45A64",
"B  c #BC5A64",
"V  c #B25E68",
"C  c #BD5E69",
"Z  c #AF626B",
"A  c #B3626B",
"S  c #BC626C",
"D  c #BF6670",
"F  c #B36871",
"G  c #BD6A74",
"H  c #BC6F79",
"J  c #C05762",
"K  c #C15A65",
"L  c #C25E69",
"P  c #C4626D",
"I  c #C8636F",
"U  c #C56671",
"Y  c #CA6671",
"T  c #C56974",
"R  c #CB6A76",
"E  c #C66D79",
"W  c #CD6D79",
"Q  c #D06B77",
"!  c #D16E7A",
"~  c #C5717C",
"^  c #CD717D",
"/  c #D2727E",
"(  c #C57580",
")  c #CE7681",
"_  c #C77883",
"`  c #D57582",
"'  c #D87683",
"]  c #D57985",
"[  c #D97A86",
"{  c #D67D89",
"}  c #DB7D8A",
"|  c #D6828E",
" . c #DE828F",
".. c #DD818E",
"X. c #DD818E",
"o. c #D78591",
"O. c #DF8390",
"+. c #DF8390",
"@. c #DC8390",
"#. c #DC8491",
"$. c #DF8491",
"%. c #DE8490",
"&. c #DE8491",
"*. c #DD8995",
"=. c #E0828F",
"-. c #E08390",
";. c #E08491",
":. c #E08591",
">. c #E08592",
",. c #E18592",
"<. c #E18693",
"1. c #E08693",
"2. c #E28693",
"3. c #E18794",
"4. c #E18794",
"5. c #E28794",
"6. c #E38795",
"7. c #E18693",
"8. c #E18895",
"9. c #E18995",
"0. c #E28895",
"q. c #E38995",
"w. c #E18996",
"e. c #E38996",
"r. c #E28996",
"t. c #E18B97",
"y. c #E38A97",
"u. c #E48A97",
"i. c #E48896",
"p. c #E28996",
"a. c #E38B98",
"s. c #E38A98",
"d. c #E48B98",
"f. c #E48A98",
"g. c #E28C98",
"h. c #E48C99",
"j. c #E58C99",
"k. c #E58C9A",
"l. c #E58D9A",
"z. c #E48D9A",
"x. c #E68D9A",
"c. c #E58E9B",
"v. c #E58E9A",
"b. c #E68E9B",
"n. c #E58F9C",
"m. c #E68F9C",
"M. c #E68F9C",
"N. c #E58D9A",
"B. c #E6909D",
"V. c #E7909D",
"C. c #E7919D",
"Z. c #E7919E",
"A. c #E7909E",
"S. c #E7929F",
"D. c #E7929E",
"F. c #E7919E",
"G. c #E8919F",
"H. c #E8929F",
"J. c #E8929F",
"K. c #E693A0",
"L. c #E893A0",
"P. c #E893A1",
"I. c #E993A0",
"U. c #E894A1",
"Y. c #E994A1",
"T. c #E995A2",
"R. c #EA95A2",
"E. c #EA96A3",
"W. c #EA97A4",
"Q. c #EB97A4",
"!. c #EA95A2",
"~. c #EB98A5",
"^. c #ED9AA7",
"/. c #EC99A6",
"(. c #EC99A6",
"). c #ED9CA9",
"_. c #EE9CA9",
"`. c #EE9CA9",
"'. c #F09FAC",
"]. c #F1A0AE",
/* pixels */
"B S W W C z E $.] X. .X.X.%.| ] ^ Y z h x R W V m S U W } / [ 4.W W R 2.q.H.q.l.4.[ 4.=.] U ^ ) N z } { l.l./ M M / R Y Y Y L L ",
"{ ) } *. .| $.X.l.S.T.T.S.B.g.H.u.R f x h M ] ^ ^ X.*.$.} ] l.l.^ T W 2.S.l.P.H.f.u.+.} W / S U X.[ X.g.l.l./ x P R [ / / ' ! Q ",
"4.W ] M.P.f.2.S.$.2.B.S.S. .} B.2.' L J ! [ u.H.l.2.q.q.2.} q.H.2.] / } q.q.f.u.i.l.X.] m ` K.f.g.4.l.S.l.H.[ j L Q 2.i.2.=.' ' ",
"} ] M.P.S.X.l.P...2.q.%.B.H.2.X.b.' I c W 4.u.b.2.R X.l.M.q.q.f.2.l.f.4.g.l.l.f.4.H.P.q.g.P.T.l.2.2.S.2.} H.[ P c R X.=.2.[ I Q ",
"[ } q.S.4.2.4.S.q.g.B.%.S.Q.W.l.u.W L M W l.q.S.l.] $.l.l.2.X.+.u.T.H.l.q.q.M.P.H.S.H.S.T.l.l.T.T.q.} X.W X.} I K M [ f.2.} } =.",
"4.f.q.$.[ X.q.M.T.S.} *.W././._.H.Y B L ` Q.l.q.H.q.l.l.$.X.` q.T.T.H.S.g.l.P.P.T.P.l.2.q.+.g.T.M.2.} } +.l.X.P L W C E =.[ -.4.",
"=.2.q.[ X.g.S.S.S. .q.~.B.} H._.T.[ L B ` T.H.l.q.2.2.4.S.+.X.+.2.S.l.u.S.S.P.T.T.T.q.l.f.4.X.} $.+.+.} S.T.X.j M ! 8 T i.-.X.2.",
"=.} [ ` } $.#.g.l.X.q.H.l.l.W./.l.` L f U Q.g.q.X.=.[ $.l.q.q.2.l.B.S.l.l.l.l.T.T.S.l.T.T.S.n.*.g.q.u.q.T.T.W a c 8 1 [ f.-.' ` ",
"g.n.g.^.l.| { ^ X.X.X.T.~.H.H.Q.g.P f B P ` } 4.[ [ } l.l.l.H.B.l.$.q.X.| q.S.*.#.o.$.*.o.*.o.o.X.| ^ ^ { ) M B Y f j [ -.` W c ",
"^ T H { *.B.K.$.P c P B.S.~ W ^ z a L P m M / T B g d W ^ G T E [ ] { / P P d - + X + + $ * - - > > 2 5 7 r x B ! R W ` / ] R R ",
"7 w e l z v v m T ` z z S P T g e ` X.*.{ { { S N z z T S z g x T T G ) P d f 9 &   O # , i z K B P P P Y W ] } R d P } ` E u 4 ",
"X.*.2.X.) P m P W ] [ ] ] ^ ] ` ] } } ^ R / ] X.l.2.=.} ] ] W ] / ^ T T W ^ / c i i x S ! B x W ` / ] { ` W W S g v ` [ M h 3 = ",
"` X.` N x L ] { ^ { u.l.X.S ] ` X.S.] X.$.*.S.S.q.X.X.} 2.1.l.q.] ] / R / ] ^ U R ! 2.} $.` [ S.H.H./././.q.T P ` } 4.} ` } f 9 ",
"] $.) E / ! } T.M.2.l.S.2.X.] %.4.1.q.q.2.q.q.X.[ S.P.l.l.l.2.l.H.H.l.u.l.S.1.] / 2.~.M.T.T.~././.H.S.l././././.T.g.H.q.X./ x L ",
"H.T.P.f.! ` } } 2.u.S.q.{ H.K.g.l.S.S.T.Q./.~.Q.Q.~.S.2.l.l.u.S.T.H.T.l.H.T.T.$.[ 2.Q.u.~.T.S.K.B.l.g.T./.Q.~.~.T.Q.Q.K.l.] i c ",
"H.M.P.M.R P [ X.H.S.l. .X.T./.l.g.l.S.Q././././.~./.T.q.l.l.l.T.H.2.u.} }  . . ./ i.Q.M.X.1.H.q.{ 4.q.H.Q.~.Q.T.Q.T.Q.T.l.[ x Y ",
"l.P.Q.H./ c ` =.H.b.2.4.l.l.H.H.u.u.u./././././././.~./.~.I.l.H.l.2.X.[ [ u.' / U E $.M.l.S.T.~.^.Q.T.T.S.T.T.T.l.H.S.H.S.] j P ",
"u.Q.T.u.! B / 2.l.T.q.g.l.l./.H.2.q.H./././.H.P.~.~.Q.M.f.i.2.T.Q.S.X.q.X.' } T z r N T.T.~.l.l.g.q.S.S.M.Q./.T.S.S.g.g.l.` c / ",
"u./.P.u.R K ` H.4.} [ X.l./.P.l.T.l.T././.~.l.T.H.b.f.g.u.X.4.u.u.{ T } } [ ' [ ` m f T g./.~.H.q.$.g.} $.*.M.T.~.T.g.2.-.R c / ",
"b././.u.K j [ S.[ -.[ X.T.~.Q.H././.T.T./././.T.P.T.4.*.X.2.} u.2.2.2.q.$.2...[ ] #.T T v W $.] } $.*.` / ^ ) ] ` W P z B c M ` ",
"_.].H.U k p M ] X.X.} 2.] 2.K.~.T.W.q.T./.~.K.$.{ { ] { @.^ ^ ] ` #.^ ] / P T ] X.] T [ W r d f a r 9 ; 4 , 5 r g 8 0 4 8 j ` [ ",
"F A v 9 f x a M l d d r d C ^ ] ] / P S v v e 7 ; 7 v b b d u v u M z ) ] ` S P { X.g.B.X.B a e B R B x 9 a x T U R ` / ! / / R ",
"u l t a M Y U ^ W C z S ^ ` 2.X.} ] } ] ] W N v C C E S l u E } ` W ] ] X.$.%.X.X.X.q.S.} B k Y ] } C B K L Y P m 8 g M U S L ! ",
"/ [ ^ ` X.} ^ W ] ! P / X.q.2.X.S.S.2.S.*.' / P ` R C 4 2 r | *.l.S.S.$. .$.*.S.~.T.T.S.^ } ! 4.u./ R Y ] 2.2.X.$.{ ` ] ) G } [ ",
"[ R ` l.T.T.q.*.$.$.] / x.H.=.2.S.g.S.H.2.X.f.2.q.} W d U ^ g.S.T././.l.M.M.P.Q./.'.`.l.[ } 2.} ..X.] ` =.l.b.V.H.4.[ l.l.l.l.q.",
"} =.j.Q.~.T.g.[ H.W.T.S.Q.H.M.u.l.q.H.l.l.q./././.S.^ [ $.q.Q.).]._.'.'.).`.S.g.T.'.`.M.} [ } } X.` R [ ` 2.V.l.2.` W ` q.S.2.] ",
"H.H.H.l.S.T.q.$.j.l.q.$.b.b./.^.4.H.P.l.u.u./._.T.~.%.} X.q.T.~.].'.].'.'.Q.4.P.'.'./.H.f.l.H.P.T.B.u.X.| 2.q.B.l.2.} q.$.] X.g.",
"j.V.H.u.l.l.S.} 2.l.l.S.Q.H.Q.Q.l.H.T.l.u.H.T./._.`.g./ ] @.X.S.].'.T.l.f.T.l.H.'.].~.H.f.f.~./.W.T.Q.H.} } X.l.l.q.} l.$.} 2.S.",
"j.j.j.X.=.=.=.{ [ g.Q.'.`.Q.H.Q.f.H.T.T.H.H.T.H.H./.+.Y ` } K._.].'.T.M.l.T.T.~.'._.S.B.1.} W.W.T.H.Q.q.] f.l.2.q.l.+.X.2.2.S.T.",
"l.B.S.] $. .u.H.l.X.-.H./.`.'.I.b.P.l.H.H./.T.H.T.Q.q.B Y { '._.`./.T.T.Q.P.l.H.~.~.T.S.1.l.W.S.T./.~.S.] 4.l.l.l.X.X.} +.l.T.M.",
"X.W.H.X.W./.~.Q.H.l.l.H.'./.^.Q.Q.Q.q.T.Q.Q.T.} X.H.$.M ^ g./.W./.T.q.S.`._./._._.S.%.$.q.S.q.S.^.^.T.H.T.H.u.f.q.} ` ! $.q.g.l.",
"q.B.H.Q._._.'._.T.H.b.Q.H.I.I./.'.'.Q.=.l.b.H.Q.~.S.] B I / } S.l.S.l.P.T.S.S.*.g.X.| ` } $.W $.| ^ P P 2.2.[ W T C R ` g.S.q.` ",
"! / ` { ` ~ H b A A Z A Z Z A b Z F A P T T { g.l.$.] B P d v S C e y Z v U C S U R ] / } ] ] / S z z M T Q [ R ^ P R U / ` ` ^ ",
"^ E ` { T E D D A D S z u e 2 % 2 u N ^ ) ] X.g.q.$.{ / / ] T D ] S u v F ^ ] } X.*.q.| R ] [ ! [ } ` W m N W ] / ^ [ } ` } [ / ",
"T T U U E { } ' ` ] S P m z a x U } } #.X.*.X. .l.M.q.] X.X.P U U P g r B ^ $.^ / 2.M.] S K J J B Y T U Y T R x c i B Y ! / [ ` ",
"L U } X.f.q.[ W =.X.] ) { / ` R ! 2.M.Q.H.~.T.M.T.l.S.q.S.2.g.N f c ^ { $.X./ ` ' } 2.q.4.} P B x c R / } l.q.[ W / / ! L I / / ",
"` [ 2.} } X.-.' [ } H.2.2.+.2.Q R g.P.T.Q./.Q.2.M.P.Q.l.T.T.P.` B P 2.M.g.q.2.2.[ =.M.T.~.M.q.q.[ ! Q ' / i.j.1.! / ' ! I P Y Y ",
"} } ! } [ 2.2.2.} [ 2.b.M.2...S Y T._._.~.H.f.i.l.u.H.H.S.P.S./ / $.q.u.g.S.l.g.] -.4.l.P.l.M.S.=./ / } =.=.2.u.[ ' Q K K c J c ",
"+.[ [ } } } ^ Y z ^ b.I.q.} } B ` ~._._./.'.l.H.T.u.u.2.q.M.q./ } 2.l.H.S.T.f.4.X.X.2.f.l.q.2.2.[ / / / } =.=.=.} / Y K J j c p ",
"} X.g./ q.4.} M * 7 I P / l.` R } P._./.`.'.H.H.H.H./.T.M.l.X.` / ! q.l.f.q./ ] ` X.} X.q.f.q.[ Q R I Q ' ..} [ =.! L L J c c s ",
"X.2.] / } X.` Y W ` ` ^ / ! P W ] T.^._.Q.S.M.T.^.).K.`.`.T.4.} [ ` 2.2.S.q.[ X. .q.l.1.2.2.2.} ] c j P J Q ..t.=.! P L c s j j ",
"! R ` } / ! ` ` } X.] ` R [ ^ X.q._.^.`.g.M.Q./.).~.$.P./.~.q.$.X.[ u.u.l.$.$.H.T./.S. .} u.2.X.[ / R I K P [ g.' Q c s p 0 0 s ",
"U C ` [ } =.' } ` P R L R ! ` ^ P ` g.S.l.S.g.P.Q.~.g.+.] ` U L R } X.[ ] ^ / X.q.] X.] ! ` [ / / [ 1...Q P ! / P x p p p p p 0 ",
"U R k k R ` ! ` x p f c R ` ! c P / [ ` } W ] 2.q.$.^ P R x L / ` P K B r a c g B K ^ Y I I P R R ] t. .! S N x B c x a a p p c ",
"E B L ! L M W T 9 p c M M R ` W S } W K R / W W } 2./ c x j j K P x j x f P / x g M / Y S P Y / ^ R ] ] / [ ! S c c j s s i 9 p ",
"C c P ` R P P P c 0 j j j C ) q.[ X.` P } q.$.X.Y Y B j x B c J P m M B L / $.] ] 1.l.l.l.u.$.X.1.g.B.1...[ Y k x c c s c K i c ",
"[ T V ] 2.4.] ! Q s c c P ] X.] ` -.q.l.S.S.S.l.} ` ' Q J c f J R R L j 8 ~ T.K.H.S.S.T.H.2.g.u.%. .] ] =.I c s j j c K J x i J ",
"{ c S 2.=./ [ / L J j P ! ` ] +.q.q.` ] f.S.g.2.l.} I c I / Y J ! ` j f B #.l.$.H.H.l.l.q.[ } [ %.X.%.X.' Y J I Q Q [ / / ! c c ",
"} Q ' } X.X.$.} Y L c Q } u.} W { 2.X.+.u.2.X.l.S.l.q.X.4.l.} ! ` Q j J ` q.2.[ M.T.M.l.l.} [ X.] ]  .[ [ / W } [ ` } X.4.` R Q ",
"g.` ! -.2.X.q.2.-.' P [ f.P.l.} [ } ` / T m m ` l.P.H.H.l.g.l.l.f.[ [ / W X.q.` X.X.} H.S.q.l.q.X. .g.} X.f.u.u.l.=.[ X.! K Q / ",
"f./ ' 4.2.q.$.X.[ [ +.q.X.S.S.q.} C P B 3 r g Y 2.l.S.M.$.} P.K.Q.Q.H.2.' -.S.X.] / [ S.u.l.H.H.l.l.S.g.l.l.g.l.H.2.} ] Y P R ' ",
"l.! Q ' X.X.q.q.g.4.f.2.l.Q.T.+.P P x f M / x.f.l.T.l.2.X.X.S.~.~.~.H.2./ 4.T.l.X.$.l.H.4.M.l.q.j.q.1.B.q.f.S.X.u.2.[ } } / / [ ",
"X.T I ] u.q.]  .M.S.g.M.S.~./.M.X.$.2.I ` q.T.T.P.T.S.q.} { g.Q.'.'.l.} [ [ S.H.$.| B B P X.K.1.j.l.q.$.} 4.` U D l.H.b.u.X./ ! ",
"x 8 i ^ H.M.] X.$.M.q.g.q.u.S.Q.q.$.X.g x X.$.$.#.*.*.] ^ o.{ ~ _ ~ V B T W P B x c P / B T G N V V S v z d u : ; e u y e w e - ",
"$ 7 i d b b l x m m B ^ ! L z l l g l x S l w w 7 e 7 7 7 7 7 t d r z m P / T T ^ / 2.q.X.U N m B B x x z f a k z q 6 , 1 3 i 9 ",
"S S R R S B / W B P P B x 9 i f C W T P R ` L M B L P L W W / ` [ } X.X.l.[ 2.q.$.g.l.S.] Y z l / ] [ [ / c 9 B ! } ' Y I R L c ",
"X.[ ` } W z ^ R q.2.} P 3 1 M ` 2.2.` / q.T.B.g.S.q.q.l.u.l.b.l.u.l.H.P.H.l.H.T.P.T.H.S.P Y d { b.b.f.u.4.] B [ 4.u.2.} ' m M c ",
"+.X.[ } W m x Y M.] / R c p j / 2.X.` / u.H.T.T.T.l.T.T.P.T.H.T.T.T.T.T.T.T.T.H.T.T.H.l.! I c [ b.b.b.u.4.f.4.u.M.u.4.q.2.S B / ",
"q.q.[ 2.X.B Y [ S.2.X.1./ k 0 M [ 2.u.' =.H./.T.~.W.~.~.T./.H.T.~.T.S.H.H.T.H.S.+.l.M.l.[ I Y =.M.b.l.-.2.4.M.l.f.2.} Y [ L M ` ",
"X.+.2.q.X.r I ' S.l.j.H.q.[ ] } q.H.l.} 2.T./.T.W.W.T.~.~.T.T.P.H.S.S.H.l.S.S.} ` X.2.u./ I Y } b.b.l.X.u.b.l.f.u.-.} ' ` ! I U ",
"2.-.-.i.[ M R [ M.l.q.2.H.l.P.H.u.l.M.} 2./././.~.~.T.T.H.T.H.q.} [ 2.u.X.f.l.u.l.M.X.} Q Y Q } 2.u.u.i.u.i.u.u.2.2./ ! ' Q Q ! ",
"[ } -.-.[ L R [ P.S.P.P.T.H.M.H.T.S.u./ } /.H.P.S.l.l.l.l.l.X.P ! ! [ 1.f.2.S.T.H.4.q.2./ P N } b.2.-.i.2.-.-.[ / [ R W [ R 9 x ",
"f.f.u.X.} Y / } P.T./.P.H.H.l.H./.~.q.B ^ T.l.T.T.l.S.T.V.u.[ W  .l.H./.Q.T.P.Q.Q.l.M.H.' k 6 P Y L P ` -.-.} R p L / [ [ P . < ",
"l.f.i.f.4.' [ } T./.~.T.l.f.u.l.H.T.1./ U ^ $.) X.T.~.`._.T.j./._.T.Q./.T.$.X.u.q.l.q.} I p 9 6 0 j J K I ! ' P 3 z P B x < 2 i "
};
