/* XPM */
static char *a75dc5689a9e422bb82261d007b7e4b5kGGlQFbG8ZcvLybr[] = {
/* columns rows colors chars-per-pixel */
"64 64 207 2 ",
"   c None",
".  c #2B251F",
"X  c #3B332A",
"o  c #363027",
"O  c #46372A",
"+  c #443D35",
"@  c #5A3D29",
"#  c #4B4336",
"$  c #4C453A",
"%  c #4E493E",
"&  c #534536",
"*  c #5C4634",
"=  c #534739",
"-  c #534A3D",
";  c #594D3C",
":  c #5E4831",
">  c #5D503F",
",  c #624E3D",
"<  c #684B37",
"1  c #714E38",
"2  c #63523E",
"3  c #6B533C",
"4  c #7C563D",
"5  c #7C5A3E",
"6  c #745638",
"7  c #444341",
"8  c #4A4640",
"9  c #4E4B45",
"0  c #544D42",
"q  c #594F42",
"w  c #514F49",
"e  c #524740",
"r  c #565045",
"t  c #5D5344",
"y  c #56514A",
"u  c #5C564A",
"i  c #5E584C",
"p  c #5E5952",
"a  c #625544",
"s  c #6B5741",
"d  c #665946",
"f  c #6A5B46",
"g  c #615749",
"h  c #645A4B",
"j  c #6B5D4B",
"k  c #735D44",
"l  c #7A5D43",
"z  c #725F4B",
"x  c #645D52",
"c  c #6B5F50",
"v  c #6D614E",
"b  c #746246",
"n  c #73634D",
"m  c #7A654C",
"M  c #7D684C",
"N  c #796044",
"B  c #666055",
"V  c #6C6353",
"C  c #6D6559",
"Z  c #6E685C",
"A  c #6F6857",
"S  c #736553",
"D  c #7A6652",
"F  c #756955",
"G  c #7B6B54",
"H  c #73665A",
"J  c #756B5B",
"K  c #7A6E5B",
"L  c #7D715D",
"P  c #7F7057",
"I  c #6D6662",
"U  c #736C62",
"Y  c #7A6E60",
"T  c #777264",
"R  c #7D7363",
"E  c #74726B",
"W  c #7C766A",
"Q  c #7E796E",
"!  c #7F7B73",
"~  c #7B7672",
"^  c #845C3C",
"/  c #815533",
"(  c #8C633D",
")  c #835F48",
"_  c #856346",
"`  c #8E6542",
"'  c #846A4C",
"]  c #8C6B4D",
"[  c #886545",
"{  c #8D734F",
"}  c #96744D",
"|  c #826C54",
" . c #896E51",
".. c #826F59",
"X. c #857155",
"o. c #8C7454",
"O. c #83735C",
"+. c #8A755B",
"@. c #87785E",
"#. c #8B795D",
"$. c #8E7856",
"%. c #927354",
"&. c #997554",
"*. c #927954",
"=. c #9B7A55",
"-. c #937B5C",
";. c #9B7D5B",
":. c #91775E",
">. c #A6794C",
",. c #A37D55",
"<. c #837663",
"1. c #8B7762",
"2. c #857965",
"3. c #8B7B64",
"4. c #827668",
"5. c #857B6B",
"6. c #8B7E6A",
"7. c #927D63",
"8. c #917F6A",
"9. c #847C73",
"0. c #8A7E70",
"q. c #9A815D",
"w. c #96805B",
"e. c #AE8452",
"r. c #A2825C",
"t. c #AC8A5E",
"y. c #B1895F",
"u. c #8E8066",
"i. c #8D816C",
"p. c #86806E",
"a. c #948265",
"s. c #9B8464",
"d. c #9D8864",
"f. c #93846B",
"g. c #9A856A",
"h. c #96886E",
"j. c #9B8A6C",
"k. c #848076",
"l. c #8C8372",
"z. c #8A847A",
"x. c #89867B",
"c. c #938571",
"v. c #9C8774",
"b. c #958974",
"n. c #9C8C73",
"m. c #948B7B",
"M. c #9A8D7B",
"N. c #90877C",
"B. c #9D9076",
"V. c #9D927B",
"C. c #A38565",
"Z. c #A38B65",
"A. c #AC8C66",
"S. c #A28D6D",
"D. c #A98D6B",
"F. c #B28E65",
"G. c #A4916E",
"H. c #AB936D",
"J. c #B19666",
"K. c #B2996D",
"L. c #BA946A",
"P. c #A28E73",
"I. c #A98F73",
"U. c #A18E79",
"Y. c #A39274",
"T. c #AB9473",
"R. c #AD9976",
"E. c #A3947A",
"W. c #AA967A",
"Q. c #A6997E",
"!. c #AA9A7C",
"~. c #B09675",
"^. c #B39C75",
"/. c #BB9E74",
"(. c #B39D7A",
"). c #BAA174",
"_. c #B6A17D",
"`. c #BBA47C",
"'. c #C4A779",
"]. c #8E8B83",
"[. c #928C81",
"{. c #959185",
"}. c #9B9383",
"|. c #9A958B",
" X c #A59781",
".X c #A59983",
"XX c #AB9C84",
"oX c #A19789",
"OX c #AA9D8A",
"+X c #A59A88",
"@X c #B39E81",
"#X c #A79D90",
"$X c #AEA28A",
"%X c #B3A385",
"&X c #BBA382",
"*X c #B3A48D",
"=X c #BAA98A",
"-X c #AEA795",
";X c #A9A494",
":X c #B4A993",
">X c #BDAD91",
",X c #C3AA83",
"<X c #C2AC8A",
"1X c #C1A482",
"2X c #C6B189",
"3X c #D5C59F",
"4X c #DDCBA2",
/* pixels */
"                                                                                                                                ",
"                                                                                                                                ",
"                                                                                                                                ",
"                                                                                                                                ",
"          T.@.t G T.7.#.b q.a T <.K <.+.f #.X.@.<.2.b.O.> T.Y.n.s.t +XOXM.Y S 8.0.4.P.O...1.4.6.z.<. XW.8.' Y I 0.U.0.          ",
"        3.Y.S q $.s.f b 3 t.X.l.<.L i.h.> b m D d <.h.K +.,XY.g.7.- Q.+XM.W S @X[.6.U.....a H Y 4.K W.M.v...0.[.z.8.I.D.        ",
"        f.3.a q q.q.; 2 { q.v 4.R O.O.3.u t 1.L g R v #.!.<XR.7.f.a M.M.6.5.H v.v.f.h.H 7.<.N.[.9.Y 6.c.6.1.6.0.9...F.F.        ",
"        E.M.B.F X.b V O.f t L L D V a #.c A i.2.C u 2 v d.j.-.a j G <...z v.c.b.6.6.+.g.7.F z.z.~ H 3.G z 7.S.C.f.1.C.T.        ",
"        XXXXQ.L t f J P V L n.5.5.<.L B.f.L u.5.J h v f w.D 1.V 3.&Xb.6.g.M.M.c.l.c.n.=XO.J 2.m.x R.T.j | /.I.7.v.W.W.W.        ",
"        $XXXV.K m X.K L V f.B.2.K <.V Y.T.O.L L S S G #.T.W.i.A f. Xf.f.K 5.M.l.0.b. X@Xv.6.i.V.4.1Xg.S 1.'.C.j f.&XI.8.        ",
"        .X X<.v G P L L F n.n.5.K <.F XXn.v i v M M a.j.j.&Xa.r D 3.+Xv.K <.<.F K 3.XXQ.E.R i.m.b.'.C...7.'.+.d O.C.D s         ",
"        V v z a f D L F v G n a d j F F i W i N ( G n.T.n.`.#.r G V.XX3.H x ..| :.m XXn.K x b.M.8.^.7.O.b F.z S a f a G         ",
"        h % +.7.O.O.1.f.* b 6.a $.b n ; r K 3 6 ` j #.T.a.R.J i K V.6.K B i 8.1.z d v.K h S b.4.Y 7. .a z 1.c ..S z ..U.        ",
"        o X 7.R.a.D t G @ ] F g a.a.3.0 L @.3 ^ ` n p.#.@.3.> S U 5.2.T K n.$Xm.C K W. X6.f.P.O.K 2.G S 8.7.O.v.v.v.f.XX        ",
"        . b #.s.> ; a v b b h a #.j.P D K.K.-.k k 5.}.i.F k o.M E ].|.m.n.%Xb.6.H <. XM.6.1.u.K K 0.U c.U.7.1.U.g.d | U.        ",
"        v d #.G.r v v - j g 5.6..XE.L #.).)._.h G V.V.n.v o.,.*.~ ].|.].i.Y.i.L C <.W.6.1.O.O.S 2.c.5.c.U.D j O.D 1.g.v.        ",
"        u.r n 7.s.| < 7.c j W 5.*XOX<.3.).'.H.@.u.L @.P i u.w.#.x.|.{.x.i.u.L L B D Z.v ; D @.L 8.2.H ..7.S J I 7.&X8.8.        ",
"        6.B h y.>.5 < ;.u C ! 9.XX X1.+.K.'.H.X.i.h B h.h n b P T x.k.}.XXi.W u.L G b & r Q.2X&XI.<.G 2.L <.6.6.<.1.O.7.        ",
"        K S 2 L.(.f.F B.x 5.[.}.OX.X0.G J.J.J.a.p.A 2.p.h.B.G.u.G D R $X>Xm.Z 2.O.P P u @.f.&X`.W.Y.6.6.R <.<.v.<.G K K         ",
"        $ # V W.2.D G L H x W M.<...u f Z.X.v G u.L r d ^.^.B.A S D V :X>Xi.9 F u.a.a.V @.v j.j.1.h.c 8.f.4.4.7...v.8.1.        ",
"        K R F i > D a.P a t h.G.w.% P !.^._.u.V G.h.i v R.).d.A K i.T :X$XW % v d.s.@.> 3 S i.f.v b a +.a.G 3.] %.v.8.1.        ",
"        b.i.K 9 K j.6.P B R.).R.`.v h.E.R.!.E.J a.a.@.i u.G.a.; L 2.i.XXE.J y v #.O.F v s @.Q.E.6.C.;.,.>. .+.&.O.1.7...        ",
"        B.i.T w L B.R 6.<.R.K.).`.A d.R.B.i.!.P G.u.v i F @.i X F n.f.F L 1.K K A {.}.x.I j.Q.Q.1.( / ^ ` _ 7.C.7.8.8.4.        ",
"        n.i.B % J n.p.5.R G.H.2XG.> u.u.u.L B.A @.F F P F h B @.5._.6.u G.W.f.L T |.{.x.U g.n.f.m ^ 1 4 4 5 K 7...0.Y H         ",
"        L J % r F L L T v P X.a.A # A u.p.x.{.].k.A h.A L B v X.L _.O.t R.R.i.J W [.x.! T #.F K 3.3.H j b ..n S 1.8.H |         ",
"        P n % L J A b.<.L a.P F v i B h.m.k.|.|.{.p.G.h.h.V M b v d.v - G.!.h.W R 4.b.4.i.f.a.3.n.3.5.O.1.3.f...U. XU g.        ",
"        M G F i.A J p.R L u.2.J T p.W p.@.p.m.k.p.B.!.Q.u.A h.2.h G i B a.G.u.R T 6.i.p..XE.B.6.h.3.v.3.3.6.3.1.P.U.Y 1.        ",
"        #.F h J p A 2.2.G @.W R p.p.i.p.2.B.m.i.T G.!.Y.u.B.=Xh.i @.2.l.u.j.u.p.L b.<.2.E.E.f.G f.8.f.7.O.2.O...g.@X6.x         ",
"        f v L u.J t > R L 2.2.p.B L b.p.L u.h.u.F u.h.B.h._._.i.A V.V.l.u.).^.G.#.G D +.j.6.n D s.O.G G & ; ; $ U.@X8.x         ",
"        0 i.B.Y.h X # W K 6.L L P P B.l.i.V.V.R P A w.u.2._.B.p.J B.l.l.B G.`.).T.G L p.b.K L ^.S.s.a D z 8.U.d.g. X[.U         ",
"        K h.h.O.G + $ u.R Y.j.a.u.L u.u.$X4X3XV.i.J w.d.u.!.i.i.L B.h.p.B j.'._.R.w.<.E.V.6.j.G.Z.~.7.m &.8.U.6.<.#X#Xz.        ",
"        t P D h F # ; O.G h.h.j.u.P h.u._.4X%XA u.L M X.J A A u.L h.u.L J G.`.=X`.s.p.+XV.b.P.S.H.T.H.K 7.U.E.O.I |.oX}.        ",
"        u L n.v u b G.Y.@.d.Z.h.G.j.u.J !.^.@.t v P h.(.f.B W B v A W R X.$.H.d.-.M L l.B.Q D a.-.@.a.K ..U.a.F x M.oX0.        ",
"        A 2.s.b 0 +.(.*Xu.w.G.G.G.d.A % v u.L F J h.!.B.L Q ;XE A P B.a.P f X.$.} *.{ M f.a.7.d.@.f.f.v.I K O.7.8.T.;.)         ",
"        % F P | d -._.&Xu.J u.j.d.@.> - x P i.i.A L h.n.@.R }.x.i.M q.s.n.6.K d.@.X.O.P i.}.>XQ.0.OX}.5.I C K P.I.C.C.8.        ",
"        > v J A u o.q.a.P p.l.l.A G.d.h.v u.h.@.G G.R.!.2 M Q J p.v w.$.s.J V Y.f.j.G.D E.}.:Xn.c..Xb.Y Y J K 7.3.W.U.8.        ",
"        v V m.b.m.V b v K b.b.p.L ^.G.a.@.G u.p.r.e.G.u.O d P J W L G -.S.L L R.6.u.^.h 1.b.v.3.4.f.O.G <.h.U.v.8.@X8.U.        ",
"        v R m.i.B.C f V @.u.u.l.J H.w.w.o.i F X.e.e.t.v O d o.Q.Q.K F H.R.P L B.h.n.f.M X.F f.i.n.<.P.E.8.7.f.f.U. XW.I.        ",
"        % A Q p.B.p.A h P B L a.@.Z.w.w.G F p.v { =.' & - R L c.B.y i S.a.G ..h.v.u.O.o.w.L n.V.c.1._.W.8.3.c.M.4.8.8.0.        ",
"        % V l.B.u.V.T V R A W R F P > v t R B.A @.$.J P j.p.Q p.V.<.1.W.#.P a.i.a.L u.a.a.i.b.n.3.f._.S.K Y 5.Y 8.U.0.5.        ",
"        u i B.B.l.b.2.A b.b.p.J @.u.n v y b.m.L L u.Q.h.E.u.V 2.B.7.h.T.g.3.6.b.<.2.n.h.j.G 1.O.s.j.O.Y 9.9.9.W }.0.0.4.        ",
"        - B V.n.l.x J A u.u.u.V a.w.P u T V.p.T p.n.!.$XQ.b.B T Y.] l %.o.3.6.B.b.h.1.j.f.S O.g.j.3.K <.5.9.9.b.U.8.0.I         ",
"        B V J V v r A A i.V A @.H.u.P v T m.T T u.f.!.%Xm.f.i V 8.) _ _ _ f.c.B.i.g.3.h.a.K a.3.6.h.1.K 3.O.3.M.0.1.8.e         ",
"        Z b X.t a G d.Q.W 7 y d.Z.d.F M 2.m.W p.p.L G.E.T R r B 1.z a z a K u.i.X.a.S.3.u.g.T.f.B.h.7.U.b.8.XXQ.U.<.| z         ",
"        X._ _ : d ' J.s.B 7 % X.w.w.M b i.m.E Q J v G A u.b.R B O.v.K F L V L 2.O.O.+.O.<.b.T.P.Q.<.v..Xv.6.Q.U.v.D :.:.        ",
"        $.3 5 3 > P J.G L % 7 d w.w.$.2.L L 2.p.L F v R !.B.E.C K M.n.K i.i.6.6.f.F +...6.6.#.Y.R.v n.OXE.7.1.f.1.S 7.1.        ",
"        _ < 5 k v P F h A F L L L L .X-XQ.T p.@.Y.K r b.V.B.j.K <.U.E.3.u.5.R b.M.K 7.S.d.P.7.K P.G P.Q.E.1.<.v.N.6.O.j         ",
"        3 & G N M v d t h.B.i.h.A A -X-X-XA 2.@.2.J A f.V.n.p.6.5.B.E.6.2.<.L B.Q.<.Y.&Xg.C.1.g 8.1.C.n.I.8.0.}.M.4.4.v.        ",
"        P v V K u.V i A Y.B.m.V.p w }.$X$XJ p.B.5..Xb.6.W.h.3.3.5.K 4.J F n.2.b.b.K s.H.1.g...S | D 7.8.7.7.b.c.b.c.6.8.        ",
"        2.f u W m.R p V Q.V.m.V.u 0 P Z.f.k.B.6.S S.3.S 1.1.n h h.R 6.J F n.i.i.h.<.S.H.s.s.z D z D S K E.T.1.d n.~.7. .        ",
"        @.i h a.2.p y v Y.m.C B.T u m #.i.{.m.q.' C.X.V O.G H c U.c.6.K 4.b.i.c.c.2.7.S.T.@.c <.<.+.8.8.1XI.7.1.8.7.%.=         ",
"        6.j A ' k L p u J p.u T T V L E.B.m.W g.K a.S S C.7.7.D E.M.5.R c.n.f.n.J c S.K ..-.g.3.g.g.8.g./.;.:.G | C.~.C.        ",
"        f.6.t : f K B V V l.R V R B.E.Q.B.! l.j.u.6.B D 6.1. .q S.W.3.Y 4.v.L n.E.<.-.Y.g.1.<.8.7.h.f.G A.%...S.8.(.'.1X        ",
"        S ..; a h F p.i.u.n.i.6.L Y.B.W.E.F T B.V.l.B L g.7.k q ;.I.1.w H j.3.i.E.S 7.;.7.m ..M.3.<.n.7.g...C.,X8.I.1X1X        ",
"        &._ 3 f L h.j.u.6.n.i.6.S P.n.Y.E.<.R Q.V.l.w 2.s.| a q n.*Xz.0 Y n.8.c.W.c C.,.,.j i.M.0.6.g.g.7.g.I.<X7.~.@XI.        ",
"        y.&.5 N 3.Y.Y.P K i.p.2.d K j.a.f.n.i.3.n.A i P +..., @ B.n.R Y <...P.E.U.H F.;.:.K E.2.5.c.d.P.C.v.f.Y.1.I.U.U.        ",
"        =.' k n d.G.s.F v b.i.6.v M ;.b X.h.h.h.J v 2.u.L 1.G 0 3.O.3.#.P L a.a.f.S s.,.%.l.V.9.5.5.g.P.S.7.O.g...8.v.f.        ",
"          [ 3 X.S.s.+.D t u.<.L v h q.d.s.#.X.h.d D Y.5.A 6.j.6.u V f.n.f.u.6.<.E.E.h.7.6.+XV.6.2.j #.7.s.f.f.P...7.v.          ",
"                                                                                                                                ",
"                                                                                                                                ",
"                                                                                                                                ",
"                                                                                                                                ",
"                                                                                                                                ",
"                                                                                                                                "
};
