/* XPM */
static char *_1c53a07d1144c59a01f24798b4a8919KrGvKbbxz3Bgbk1u[] = {
/* columns rows colors chars-per-pixel */
"64 64 109 2 ",
"   c #222528",
".  c #272A2E",
"X  c #282C2F",
"o  c #2A2E32",
"O  c #2D3135",
"+  c #2F3439",
"@  c #303437",
"#  c #31363B",
"$  c #34393D",
"%  c #3A3D3F",
"&  c #363C41",
"*  c #393E43",
"=  c #3C4146",
"-  c #3E4449",
";  c #414547",
":  c #41464B",
">  c #44494D",
",  c #484C4F",
"<  c #464C51",
"1  c #494E53",
"2  c #4C5156",
"3  c #4D545A",
"4  c #525557",
"5  c #51575B",
"6  c #53595D",
"7  c #5A5D5E",
"8  c #555C62",
"9  c #585E63",
"0  c #5B6166",
"q  c #5D646A",
"w  c #5F686F",
"e  c #5F6971",
"r  c #626567",
"t  c #60676C",
"y  c #63696E",
"u  c #646C72",
"i  c #696F72",
"p  c #656F78",
"a  c #677077",
"s  c #6A7176",
"d  c #677178",
"f  c #6C757C",
"g  c #6F787F",
"h  c #70777C",
"j  c #72797E",
"k  c #6D7780",
"l  c #6E7981",
"z  c #737C84",
"x  c #787F83",
"c  c #747F88",
"v  c #778087",
"b  c #7A8186",
"n  c #76818A",
"m  c #7B858D",
"M  c #7F888F",
"N  c #7C8790",
"B  c #7E8992",
"V  c #81878B",
"C  c #81898E",
"Z  c #898D8E",
"A  c #838D94",
"S  c #898F93",
"D  c #848F98",
"F  c #879097",
"G  c #8A9196",
"H  c #86919A",
"J  c #8B949C",
"K  c #8E989F",
"L  c #929596",
"P  c #91979B",
"I  c #93999E",
"U  c #9A9D9E",
"Y  c #8C97A0",
"T  c #8E99A1",
"R  c #939CA4",
"E  c #999FA2",
"W  c #939FA8",
"Q  c #97A0A7",
"!  c #9BA1A5",
"~  c #96A1AA",
"^  c #9BA4AB",
"/  c #9FA8AF",
"(  c #9CA7B1",
")  c #9EA9B1",
"_  c #A2A5A6",
"`  c #A1A7AA",
"'  c #A3AAAD",
"]  c #A9ADAE",
"[  c #A4ACB3",
"{  c #A9AEB2",
"}  c #A4AFB8",
"|  c #A7B0B7",
" . c #ABB2B5",
".. c #A6B1B9",
"X. c #ACB4BA",
"o. c #AFB8BE",
"O. c #B1B5B6",
"+. c #B1B7BA",
"@. c #B4BABD",
"#. c #B9BDBF",
"$. c #AEB8C0",
"%. c #B4BCC2",
"&. c #B9BEC2",
"*. c #B7C0C6",
"=. c #BBC1C5",
"-. c #BCC4CA",
";. c #C0C6CA",
":. c #C3C9CD",
">. c #C5CDD2",
/* pixels */
"+ + + + O + $ $ # + o + & # $ # o + # & - = - : < < - < : : : < < & @ : 5 3 3 3 5 8 3 3 8 0 9 5 - - + = : : 1 1 1 8 q 5 = * 8 e ",
"y 0 5 - @ = y s u u e t u w u u w t u u 8 - v W T D N N H R H D ` C > J %.{ ..X.@.X.@.[ [ } [ [ T ~ D ^ } ) ( ~ ( ~ ..X.p = H $.",
"B H R Y 5 0 X.X.' R R / ) K J W ^ ~ W W Y 1 N W ^ W W D c W ( W ( T < W ..^ ^ W R [ Q [ [ W W  .Q [ } [ } ~ ( ( ( R ( ..B - T $.",
"v m J Y 0 r  .] ^ Q I E [ A H W H Y D R ( 3 l B Y W W Y A W R [ ( Y < ` ^ Y ^ +.! / R }  . .{ } } } } Q ( Y ~ W ~ Y ^ X.A - W ) ",
"S K L ' 0 r ' ^ [ { _ L [ ! C Y D B N K ( : f c J } ( W H K H [ } G : Q ( ( } [ }  . .[ /  .;.X.+.X.X.[ } Y D H } | @.@.M : Y ~ ",
"Z ! _ ! 7 r ` ] ' ] O.] ' ' G I C C H R ^ 1 z D W ` ( H H H W ( [ Y : D ^ ( R R  .]  .X.^ +.;.' ' / ( ( W T H Y | | -.:.J : T W ",
"U ! _ ` 0 7 O.] E { ] #.O.] ] { R c R H H 3 z A W X.[ H D D D R ( Y * G ^ [ { ' #. .`  ./ } X.Y Q ^ ( ^ D H T H | Q %.*.Y - ~ W ",
"] ! L I 6 2 U ' { O._ ] ] ] ] ] [ I D D R 3 l D Y } ( D B G J A R W < J } [ &.%.=.@.` ] } [ [ E K W R ^ ^ m H D | / | ) K - ( ( ",
"] ! L U 4 1 T E ' ` I S E { `  . .! J n M 1 u H H T W Y B A K D A B * v X.{ &.{ &.&. .! ^ Q R R ! / Q ~ Y H T B ~ } X.| S : ^ ..",
"] U U U 8 , ! R K ! T B E ' { O.] G P R D < 8 A A A A T R A A G n z & l ( +.%.[ +.:.#.! Y n B R Q ~ ) } D Y ) ^ ~ R ..%.v < ~ ) ",
"_ ] ! _ 8 > ] ` R E Q L O.O.O.O.O.U C E Y 3 3 A l n c D R Y T Y A m - B T } X./ { =.=.' [ R B R J J ~ ~ H B T $.R R ~ ^ f 2 T T ",
"E _ E _ 9 > T R [  .O.{ ] O.{ _ ' R J Q Y 2 9 C c m A n A R R W T N > A ! Q W W I  .;.O.;.;.[ W T J H ~ W Y n ( R ~ ~ Y q 8 ~ Y ",
"S L I J 9 : I G A { O.%.] O.#.{ _ R E { [ 2 r D A B Y H D H W Y W N 3 G A H ( ! { O.;.#.#.:.;.R T J B Y T H l m Y ( ( T p q T W ",
"` G E ^ i % R H C T R I ' +.:.O.` ! R _ [ 1 q D N H H Y D A Y W Y B 1 G W H [ %.@.+.;.#.&.#.-.W Y H n H N H n B H ~ Y T l w W Y ",
"O.E ! { f # A D Y A H S G I #.#.O.{ R G W < w D B B Y B D B c J R N > T ( ( T } @.@.-.=.&.&.X.Q ~ ~ H J B B B Y B H ( ( k e ~ Y ",
"{ ` W ! g @ s A H n R W E I _ ' [  .I I ( 1 8 T R H R Y R R D T W B - T [ ` ) }  .{ +.{ ] O.+.! ~ ~ K R ~ T H T T W ( ( 5 q ( W ",
"8 0 q 9 : X @ : < 1 2 8 6 0 6 6 i i s i h * O * * * ; 1 , 1 > 1 4 1 o @ * = : > > : = # # * = * - - : : : - = = - > 1 1 + # 2 8 ",
"X % - 1 1 1 1 > > < < 2 6 6 5 1 $ o o O r i t 8 8 8 6 8 8 4 5 9 q 9 t q 8 8 q t u u u u < & * 5 0 q u f u e q t q q q 6 8 q w 9 ",
"1 L ! E R R ^ Y D T ( ` ` W W ( A 3 & 6 X.X.[ W W } [ ^ ` R J / [ ^ W R Q ` X.$.$.$.X.$.m : 5 R X.%.-.>.-.%.@.%.=.*. .%.%.} X.} ",
"4 E _ I ] [ R I C C R R W ( R R X.z & 6 X.X.{ W G Y W Y H Y A C R T D C D R W [ } $.{ $.G * ; } *...%.-.-.%.} ^ @.%.} [  .} -.&.",
"7 b E U _ +.[ I S I E E [ { E ! X.D * 4 [ [ { ` R E [ E G R G N T Y A N A I R E [ $.%.%.A : ; ' *...%.*.*.} ) ~ [ X.@.^ ) %.>.-.",
"y M U ] _ E ` ! I G G E { { ! ` &.W - 4 ' O.[ W G R ` ..m Y ( Y R Y B N E ` E ! [ +.-.-.A - > ^ [ ) ) @.-. ./ / X.| *.X.[ X.-.-.",
"i S m ! ! I ! ` ! R A S H E ! E O.X.< 3 !  .{ [ F J ` ` c G W T Y R D H ' X.{ ! ` +.%.$.m * 3 $.} W ) %.*.-.} R )  .*.-.%.X.X.X.",
"0 I f z J ! ` ' R S A m c D A C _ +.8 > G ` R { R T W J D D Y R H D D / X.%.{ { X.#.+.X.c * q X. .~ } %.-.-.' Q X. .-.*.@.*.%.$.",
"7 J G j V U E ` ^ R S A B B A C E O.9 > E ] E ] ' [ ` W R T B B H T T O.X.#.^ { #.#.*.-.c # 8 ..$.X.~ *.:.:.[ G O. .#.*. .O.@.o.",
"9 L E S V V E [ X.Q T K H R Y R { { 9 1 { X.! ' { { $.{ R R A H Y W ! [ %.+.X.&.;.*.;.*.x * q ) $.*.X...o.%.X.Q #.@.o.#.O.] X.*.",
"4 S I I S P E +.X.Q Y R I G J Y ..&.t 9 ' +.@.' O.@.$.` R Y A H R Y ` ` @. .%.*.>.:.>.-.m * f ..$... .) I X.%. .#.#.#.O.O.] ' &.",
"> E E R A G !  .[ ! / / I G x I ( $.q i { X.@. .{ $.$.{ J H N J ^ ( Q [  .+.&.&.-.%.%.-.v = i $.$.} R ~ E Q [ =.#.*.*.=.@.#.@.=.",
"> L P G A E U ' I D W ` ! E x V ( [ 9 u [ ' [ W R ' } W A A Y Y W }  ./ { +.%.;.%.X.%.*.v # 9 X...*.( } ' ^  .O.O.#.:.-.&.=.@.*.",
"; S C C L ' _ E A C R ( ^ W G z W } u u W C T T H R W R H D R R K ^ [ ' ` +.@.-.&.X.%.%.v # 9 } ..%. ...| @.@. ._ ' :.-.#.X.^  .",
"% L L C ! E I K J G I G D Y Y c J } t 9 D B D D D D Y W W ( ^ W Y ^ ^ R [ +.+.%.+.X.@.$.v * y / } ..X.%.@.#.@.]  .' X.-.%.| ' | ",
"o i C A J J M z z A ^ R A I S I I G > 8 J K D Y R W G ( ) W W ) (  .} Q [ %.&.*.%.-.-.%.x - 0 R / } ) X.o.[ ' | | [ ) o.| / ) | ",
"O X % > > 3 2 : ; > 2 3 : % $ = 5 < & @ 1 6 8 9 q u q r y 9 t i s f s z j C j j g b j t 8 > < q f v B M m i u x C K G R I E I G ",
"& & # + # $ = $ # & : - : - < - < 3 1 : * * * * = : * # # # & * # & & + @ $ $ # # $ = : 1 1 - - * # # & - : # X . O O # $ * = $ ",
"G G G F F J H - = S ) R G K / Y R W T Y J W R ( ` ~ Q C < A Q W Q R D B B H A B v A J J B m A T W T K G Y J 3 - 5 q u u u w w t ",
"! G R ^ ^ ^ ~ - 6 H R Y C P E R W K C Y G J E ` X.) ..W < ! ( ~ [ X.R T n ~ %. .[ ) %.X...X.X.%.&.{ &.-.&.-.9 < R } } [ [ [ ..%.",
"Z V G L J E J & < M m H m x S I T A m S R R E E ` ( ` R = G R S ( ( W m n D } _ [ ` ' [ { ! &.+.%.O.` ` R  .8 : R [ W A J ^ / [ ",
"m j C Z G I F = 0 I Q H A k z C } E R R R ` ` ' ` E ! J : S K M B B T B B H J ! { +.#.X. .E  .O.&.#.! Q ! %.8 = R E Q J J Q R R ",
"s s M C J M M - w J ~ J R A Y M G ^ ` D G ' E ` _ ' ` G = b B M B N B B B H T B H Q E X.%. ._ ' X.[ [ I G R 0 - T ! ` ( S P I H ",
"f f b b I m S < h R ~ J H A I E J C C M G { X.@.] { ^ B : m J c N B N B n D ) Y N m D K ' #.' { [ E K S J I 0 5 ! &.{ } { ! W G ",
"z b G Z P C G 3 m E J A C G R R / C A G n ` #.&.O.R T m : S E D c Y D H n N H Q J B R [ '  . .{ [ ` ^ ! @.{ 5 9 E #.#.[ ` { { +.",
"A Z U V G U E 9 i R ' R J A v Y [ J S W E [ +.@./ A C c = b E R n B B B m A c R Y B J X.#.' _ ` ` W X.O.&.{ 2 s G { O.{ X.+.&.O.",
"S I ! C C ! ] y q Y E R H J A H W ! E I R E ` E R H A n > x ! R B D k n D D z A T J B ^ ^ '  . .` { @. .&.E : C ! E #.%.+.{ X.+.",
"_ ] ] P b G R 0 5 R  .I v B n M D H { ! R L Y R D W Y z > z I +.R R n c A H A S Y D A J J  .%.[ ` {  .O.&.x = S { I +.&.&.{ ! O.",
"_ _ ! ] b Z J q : A ! T z A D D H ! { E R U C A H ` [ c - f x ! } } R B Y D J A H D D H { { &.X.{ { ' { [ l * E @.] @.O.%.[ R { ",
"L U ! ! M I ! y < Y A A m Y Q A H ^ ^ Q R S C m B D T c * c D A R Y A H Y A R n n H R  . .[ %.%...^ { O.+.h & L &.{ ] { &.&.+.{ ",
"P G I ^ G Q R f 4 S R R A R R D A D R W ^ D D B n B W u * C W D A K H B R Y W Y R } / R Q Q X.%.&.[ ..$.&.l * G @.{ [ { O.&.%.{ ",
"J G E I J R G 8 : c Y W G J D H N D R W Y Y N D Y Y ~ t & h ) R H H R H ( ^ R [ J Q Y J Y { &.%.+.X.+.&.%.f & C %. .{ { O. .%.} ",
"2 2 > % : < - $ X $ < 2 3 6 6 t 5 5 t q 1 8 5 8 8 q q < & o 6 9 i x C x z S z t 9 f C A A A E ^ ` ^ ` } R 1 o 6 ` } { [ } } X.$.",
"@ @ # O + & & & & $ $ + O O O O o o o o o + @ # # # & * * # @ o o o O @ o @ # # # # $ # # # $ # * & * : > * & # 5 6 q u h z z j ",
"v k 8 * q p c d u f d s k m z f z x q * f R I R D A B Y H D A N M c c A z h A I W I G K u 1 v S C D A x z f u u 0 8 1 < < : > = ",
"H H g : d g n u l J A k m F J m Y [ Y 1 J } ^ } [ R H [ ( W ` ` { ! R R E H ' [ } [ (  .R u %.-.%.&.%.[ } } ~ [  .[ ( / W [ ( R ",
"u n u - k z g u u A I c f v v g l A B : C A T _ / ~ J T Q I W / ( R ) / / K I I R W D R J q +.=.;.&.#.] R R ~ R .. .[ X. .W W R ",
"w z u - c k f f f n A H n R I C x A l & n n C A A Y J S W W ` ! / J Y / [ W ! K A ~ Y D K 5 ' %.-.%.X.{ ^ B A ( } ..^ / ( Y R R ",
"p d w < m n l e f B A H S I { ' ` / u & x n c c x A K T ' R ` I ` ( R ! [ Q E G I ! H H n : I #.&.$.X.{  .R B ( W W B N ~ T ^ } ",
"u e 8 : z f n d f n R A J ^ O.] ! ( p + q z z c c z C C E Q { [ { ' [ R D ! [ ` E ' Q H g $ L +.-.+.X._ { ^ B ~ T H N n ( W ^  .",
"8 e 5 $ f f k g f z B B J / @.' I W A & 9 l k n N g c m J R R [  ./ [ J H A ! +.' L A S c * I &.*.+.@.[ ! / K W T Y H H ..W Y ~ ",
"8 d 8 # k n v B m N m n m H +.] I A S & s I z N J v J A A K L E +.E R R D B S  .{ ! C A x # L O.=.[ %.%.! ! J J D H H Y ^ T Y Y ",
"e e 0 = k l n m F H B N B M ! ! S A Y - z W D N G I [ R J K I P / R Q / ~ R ! ` / Q H z z * I #.#.Q Q  .{ ' ! H H N N Y W T Y H ",
"d d e = m B A l l N J n A H Q J K H / 3 g H A n J G G A K M J R R I ' {  .Q ^ E E E / M c 1 ! #. .' E  .Q E  .! B N n A Y R R D ",
"k k u $ v B B n m F J B F H J H T T ( 8 t D H J K G ^ T R C A H R E { { ~ Y [ R H C E D m = G  .^ ! _ ] ' R ` { K n H D f H ^ R ",
"f k f O a g v B K I A F K J H T H A W < 8 ^ H R I I E ` ^ S I R W I ! S D Y  .E J S M v A > V } [ { ! ! ! E J I J g z m k c D D ",
"v z f X s B B F F H F E T Y ~ ~ Y R l # 9 R ^ ! I T R R / K J W ^ D Y W J R ^ ^ R A n n M : x [ Q [ [ Q Q R J v I S v B B n m c ",
"b B e   - A F A B A F J ~ B H ( W ) i O 9 R R I m h Y S J A A T T H D R m v D W A A J Y u * q J R R R J M K K M A A C D n H H l "
};
